%TF.GenerationSoftware,KiCad,Pcbnew,6.0.0+dfsg1-2*%
%TF.CreationDate,2022-01-11T21:16:39+02:00*%
%TF.ProjectId,omega,6f6d6567-612e-46b6-9963-61645f706362,rev?*%
%TF.SameCoordinates,Original*%
%TF.FileFunction,Soldermask,Top*%
%TF.FilePolarity,Negative*%
%FSLAX46Y46*%
G04 Gerber Fmt 4.6, Leading zero omitted, Abs format (unit mm)*
G04 Created by KiCad (PCBNEW 6.0.0+dfsg1-2) date 2022-01-11 21:16:39*
%MOMM*%
%LPD*%
G01*
G04 APERTURE LIST*
%ADD10C,1.600000*%
%ADD11O,1.600000X1.600000*%
%ADD12R,1.600000X1.600000*%
%ADD13R,0.800000X0.900000*%
%ADD14O,2.250000X2.250000*%
%ADD15R,1.930400X1.930400*%
%ADD16O,1.930400X1.930400*%
%ADD17R,2.200000X2.200000*%
%ADD18O,2.200000X2.200000*%
%ADD19O,2.000000X2.000000*%
%ADD20R,1.800000X1.800000*%
%ADD21C,1.800000*%
G04 APERTURE END LIST*
D10*
%TO.C,R5*%
X112649000Y-67564000D03*
D11*
X120269000Y-67564000D03*
%TD*%
D10*
%TO.C,R2*%
X100457000Y-73279000D03*
D11*
X92837000Y-73279000D03*
%TD*%
D12*
%TO.C,C3*%
X115189000Y-63119000D03*
D10*
X117689000Y-63119000D03*
%TD*%
D13*
%TO.C,Q1*%
X104714000Y-62722000D03*
X106614000Y-62722000D03*
X105664000Y-60722000D03*
%TD*%
D10*
%TO.C,R3*%
X102616000Y-69215000D03*
D11*
X110236000Y-69215000D03*
%TD*%
D14*
%TO.C,RV1*%
X102282000Y-63358000D03*
X92282000Y-63358000D03*
D15*
X99822000Y-70358000D03*
D16*
X97282000Y-70358000D03*
X94742000Y-70358000D03*
%TD*%
D17*
%TO.C,D1*%
X115697000Y-57150000D03*
D18*
X105537000Y-57150000D03*
%TD*%
D12*
%TO.C,C6*%
X96012000Y-63373000D03*
D10*
X98512000Y-63373000D03*
%TD*%
%TO.C,R4*%
X110236000Y-66167000D03*
D11*
X102616000Y-66167000D03*
%TD*%
D15*
%TO.C,J3*%
X95377000Y-82042000D03*
D16*
X97917000Y-82042000D03*
%TD*%
D15*
%TO.C,J1*%
X102616000Y-82042000D03*
D16*
X105156000Y-82042000D03*
X107696000Y-82042000D03*
X110236000Y-82042000D03*
%TD*%
D19*
%TO.C,C2*%
X108585000Y-60071000D03*
X113665000Y-60071000D03*
%TD*%
D10*
%TO.C,C1*%
X100076000Y-77724000D03*
X95076000Y-77724000D03*
%TD*%
D15*
%TO.C,J2*%
X105283000Y-53975000D03*
D16*
X107823000Y-53975000D03*
%TD*%
D12*
%TO.C,C7*%
X117475000Y-76708000D03*
D10*
X119975000Y-76708000D03*
%TD*%
D15*
%TO.C,Q2*%
X113665000Y-78105000D03*
D16*
X113665000Y-75565000D03*
X113665000Y-73025000D03*
%TD*%
D14*
%TO.C,RV3*%
X120697000Y-63358000D03*
X110697000Y-63358000D03*
D15*
X118237000Y-70358000D03*
D16*
X115697000Y-70358000D03*
X113157000Y-70358000D03*
%TD*%
%TO.C,RV2*%
X102870000Y-56134000D03*
X100330000Y-58674000D03*
X97790000Y-56134000D03*
%TD*%
D10*
%TO.C,R1*%
X102616000Y-78105000D03*
D11*
X110236000Y-78105000D03*
%TD*%
D10*
%TO.C,R6*%
X112776000Y-82042000D03*
D11*
X120396000Y-82042000D03*
%TD*%
D10*
%TO.C,R7*%
X102626117Y-72324058D03*
D11*
X110246117Y-72324058D03*
%TD*%
D20*
%TO.C,D2*%
X107696000Y-75184000D03*
D21*
X105156000Y-75184000D03*
%TD*%
M02*
