M48
; DRILL file {KiCad 6.0.0+dfsg1-2} date ti 11. tammikuuta 2022 21.16.32
; FORMAT={-:-/ absolute / inch / decimal}
; #@! TF.CreationDate,2022-01-11T21:16:32+02:00
; #@! TF.GenerationSoftware,Kicad,Pcbnew,6.0.0+dfsg1-2
; #@! TF.FileFunction,Plated,1,2,PTH
FMAT,2
INCH
; #@! TA.AperFunction,Plated,PTH,ComponentDrill
T1C0.0315
; #@! TA.AperFunction,Plated,PTH,ComponentDrill
T2C0.0354
; #@! TA.AperFunction,Plated,PTH,ComponentDrill
T3C0.0394
; #@! TA.AperFunction,Plated,PTH,ComponentDrill
T4C0.0433
; #@! TA.AperFunction,Plated,PTH,ComponentDrill
T5C0.0591
%
G90
G05
T1
X3.655Y-2.885
X3.7431Y-3.06
X3.78Y-2.495
X3.8784Y-2.495
X3.94Y-3.06
X3.955Y-2.885
X4.04Y-2.605
X4.04Y-2.725
X4.04Y-3.075
X4.0404Y-2.8474
X4.34Y-2.605
X4.34Y-2.725
X4.34Y-3.075
X4.3404Y-2.8474
X4.435Y-2.66
X4.44Y-3.23
X4.535Y-2.485
X4.625Y-3.02
X4.6334Y-2.485
X4.7234Y-3.02
X4.735Y-2.66
X4.74Y-3.23
T2
X4.14Y-2.96
X4.24Y-2.96
T3
X3.85Y-2.21
X3.95Y-2.31
X4.05Y-2.21
X4.275Y-2.365
X4.475Y-2.365
X4.475Y-2.875
X4.475Y-2.975
X4.475Y-3.075
T4
X3.73Y-2.77
X3.755Y-3.23
X3.83Y-2.77
X3.855Y-3.23
X3.93Y-2.77
X4.04Y-3.23
X4.14Y-3.23
X4.145Y-2.125
X4.155Y-2.25
X4.24Y-3.23
X4.245Y-2.125
X4.34Y-3.23
X4.455Y-2.77
X4.555Y-2.25
X4.555Y-2.77
X4.655Y-2.77
T5
X3.6331Y-2.4944
X4.0269Y-2.4944
X4.3581Y-2.4944
X4.7519Y-2.4944
T0
M30
