%TF.GenerationSoftware,KiCad,Pcbnew,(5.99.0-3499-gca2252686-dirty)*%
%TF.CreationDate,2020-09-23T10:30:12+03:00*%
%TF.ProjectId,omega,6f6d6567-612e-46b6-9963-61645f706362,rev?*%
%TF.SameCoordinates,Original*%
%TF.FileFunction,Copper,L2,Bot*%
%TF.FilePolarity,Positive*%
%FSLAX46Y46*%
G04 Gerber Fmt 4.6, Leading zero omitted, Abs format (unit mm)*
G04 Created by KiCad (PCBNEW (5.99.0-3499-gca2252686-dirty)) date 2020-09-23 10:30:12*
%MOMM*%
%LPD*%
G01*
G04 APERTURE LIST*
%TA.AperFunction,ComponentPad*%
%ADD10O,1.600000X1.600000*%
%TD*%
%TA.AperFunction,ComponentPad*%
%ADD11C,1.600000*%
%TD*%
%TA.AperFunction,ComponentPad*%
%ADD12C,1.800000*%
%TD*%
%TA.AperFunction,ComponentPad*%
%ADD13R,1.800000X1.800000*%
%TD*%
%TA.AperFunction,ComponentPad*%
%ADD14R,1.600000X1.600000*%
%TD*%
%TA.AperFunction,ComponentPad*%
%ADD15O,1.930400X1.930400*%
%TD*%
%TA.AperFunction,ComponentPad*%
%ADD16R,1.930400X1.930400*%
%TD*%
%TA.AperFunction,ComponentPad*%
%ADD17O,2.250000X2.250000*%
%TD*%
%TA.AperFunction,ComponentPad*%
%ADD18R,2.200000X2.200000*%
%TD*%
%TA.AperFunction,ComponentPad*%
%ADD19O,2.200000X2.200000*%
%TD*%
%TA.AperFunction,ComponentPad*%
%ADD20O,2.000000X2.000000*%
%TD*%
%TA.AperFunction,Conductor*%
%ADD21C,0.400000*%
%TD*%
G04 APERTURE END LIST*
D10*
%TO.P,R7,2*%
%TO.N,Net-(D2-Pad1)*%
X110246117Y-72324058D03*
D11*
%TO.P,R7,1*%
%TO.N,LED-*%
X102626117Y-72324058D03*
%TD*%
D12*
%TO.P,D2,2,A*%
%TO.N,+9V*%
X105156000Y-75184000D03*
D13*
%TO.P,D2,1,K*%
%TO.N,Net-(D2-Pad1)*%
X107696000Y-75184000D03*
%TD*%
D11*
%TO.P,C3,2*%
%TO.N,GND*%
X117689000Y-63119000D03*
D14*
%TO.P,C3,1*%
%TO.N,VCC*%
X115189000Y-63119000D03*
%TD*%
D15*
%TO.P,Q2,3,S*%
%TO.N,Net-(Q2-Pad3)*%
X113665000Y-73025000D03*
%TO.P,Q2,2,G*%
%TO.N,Net-(Q2-Pad2)*%
X113665000Y-75565000D03*
D16*
%TO.P,Q2,1,D*%
%TO.N,VCC*%
X113665000Y-78105000D03*
%TD*%
D17*
%TO.P,RV3,*%
%TO.N,*%
X120697000Y-63358000D03*
X110697000Y-63358000D03*
D15*
%TO.P,RV3,3,3*%
%TO.N,Net-(Q2-Pad3)*%
X113157000Y-70358000D03*
%TO.P,RV3,2,2*%
%TO.N,Net-(C7-Pad1)*%
X115697000Y-70358000D03*
D16*
%TO.P,RV3,1,1*%
%TO.N,GND*%
X118237000Y-70358000D03*
%TD*%
D17*
%TO.P,RV1,*%
%TO.N,*%
X102282000Y-63358000D03*
X92282000Y-63358000D03*
D15*
%TO.P,RV1,3,3*%
%TO.N,Net-(R2-Pad2)*%
X94742000Y-70358000D03*
%TO.P,RV1,2,2*%
X97282000Y-70358000D03*
D16*
%TO.P,RV1,1,1*%
%TO.N,GND*%
X99822000Y-70358000D03*
%TD*%
D11*
%TO.P,R5,1*%
%TO.N,Net-(Q2-Pad2)*%
X112649000Y-67564000D03*
D10*
%TO.P,R5,2*%
%TO.N,VCC*%
X120269000Y-67564000D03*
%TD*%
D11*
%TO.P,R2,1*%
%TO.N,Net-(C1-Pad2)*%
X100457000Y-73279000D03*
D10*
%TO.P,R2,2*%
%TO.N,Net-(R2-Pad2)*%
X92837000Y-73279000D03*
%TD*%
D11*
%TO.P,R3,1*%
%TO.N,Net-(C1-Pad2)*%
X102616000Y-69215000D03*
D10*
%TO.P,R3,2*%
%TO.N,Net-(C2-Pad1)*%
X110236000Y-69215000D03*
%TD*%
D18*
%TO.P,D1,1,K*%
%TO.N,VCC*%
X115697000Y-57150000D03*
D19*
%TO.P,D1,2,A*%
%TO.N,+9V*%
X105537000Y-57150000D03*
%TD*%
D14*
%TO.P,C6,1*%
%TO.N,Net-(C6-Pad1)*%
X96012000Y-63373000D03*
D11*
%TO.P,C6,2*%
%TO.N,GND*%
X98512000Y-63373000D03*
%TD*%
%TO.P,R4,1*%
%TO.N,Net-(Q2-Pad2)*%
X110236000Y-66167000D03*
D10*
%TO.P,R4,2*%
%TO.N,Net-(Q1-Pad2)*%
X102616000Y-66167000D03*
%TD*%
D16*
%TO.P,J3,1,Pin_1*%
%TO.N,+9V*%
X95377000Y-82042000D03*
D15*
%TO.P,J3,2,Pin_2*%
%TO.N,GND*%
X97917000Y-82042000D03*
%TD*%
D16*
%TO.P,J1,1,Pin_1*%
%TO.N,IN*%
X102616000Y-82042000D03*
D15*
%TO.P,J1,2,Pin_2*%
%TO.N,GND*%
X105156000Y-82042000D03*
%TO.P,J1,3,Pin_3*%
%TO.N,LED-*%
X107696000Y-82042000D03*
%TO.P,J1,4,Pin_4*%
%TO.N,OUT*%
X110236000Y-82042000D03*
%TD*%
D20*
%TO.P,C2,1*%
%TO.N,Net-(C2-Pad1)*%
X108585000Y-60071000D03*
%TO.P,C2,2*%
%TO.N,GND*%
X113665000Y-60071000D03*
%TD*%
D11*
%TO.P,C1,1*%
%TO.N,IN*%
X100076000Y-77724000D03*
%TO.P,C1,2*%
%TO.N,Net-(C1-Pad2)*%
X95076000Y-77724000D03*
%TD*%
D16*
%TO.P,J2,1,Pin_1*%
%TO.N,+9V*%
X105283000Y-53975000D03*
D15*
%TO.P,J2,2,Pin_2*%
%TO.N,GND*%
X107823000Y-53975000D03*
%TD*%
D14*
%TO.P,C7,1*%
%TO.N,Net-(C7-Pad1)*%
X117475000Y-76708000D03*
D11*
%TO.P,C7,2*%
%TO.N,OUT*%
X119975000Y-76708000D03*
%TD*%
D15*
%TO.P,RV2,1,1*%
%TO.N,GND*%
X102870000Y-56134000D03*
%TO.P,RV2,2,2*%
%TO.N,Net-(C6-Pad1)*%
X100330000Y-58674000D03*
%TO.P,RV2,3,3*%
X97790000Y-56134000D03*
%TD*%
D11*
%TO.P,R1,1*%
%TO.N,IN*%
X102616000Y-78105000D03*
D10*
%TO.P,R1,2*%
%TO.N,GND*%
X110236000Y-78105000D03*
%TD*%
D11*
%TO.P,R6,1*%
%TO.N,OUT*%
X112776000Y-82042000D03*
D10*
%TO.P,R6,2*%
%TO.N,GND*%
X120396000Y-82042000D03*
%TD*%
D21*
%TO.N,LED-*%
X107696000Y-82042000D02*
X103855999Y-78201999D01*
X103855999Y-78201999D02*
X103855999Y-73553940D01*
X103855999Y-73553940D02*
X102626117Y-72324058D01*
%TO.N,VCC*%
X113665000Y-78105000D02*
X120354002Y-78105000D01*
X121175001Y-77284001D02*
X121175001Y-68470001D01*
X120354002Y-78105000D02*
X121175001Y-77284001D01*
X121175001Y-68470001D02*
X120269000Y-67564000D01*
%TD*%
%TA.AperFunction,Conductor*%
%TO.N,GND*%
G36*
X103804800Y-53009802D02*
G01*
X103804800Y-54967241D01*
X103475951Y-54785705D01*
X103247597Y-54704841D01*
X103124000Y-54682825D01*
X103123999Y-55880001D01*
X103124000Y-55880001D01*
X103123999Y-57586730D01*
X103177335Y-57579898D01*
X103409366Y-57510286D01*
X103626896Y-57403719D01*
X103745807Y-57318900D01*
X103812881Y-57295627D01*
X103881889Y-57312310D01*
X103930923Y-57363654D01*
X103939350Y-57393214D01*
X103941544Y-57392687D01*
X104002946Y-57648445D01*
X104011371Y-57668784D01*
X104098110Y-57878191D01*
X104099808Y-57882291D01*
X104232056Y-58098098D01*
X104396437Y-58290563D01*
X104588902Y-58454944D01*
X104804709Y-58587192D01*
X104804713Y-58587194D01*
X104910664Y-58631080D01*
X105038555Y-58684054D01*
X105284670Y-58743141D01*
X105537000Y-58763000D01*
X105789330Y-58743141D01*
X106035445Y-58684054D01*
X106163336Y-58631080D01*
X106269287Y-58587194D01*
X106269291Y-58587192D01*
X106485098Y-58454944D01*
X106677563Y-58290563D01*
X106841944Y-58098098D01*
X106974192Y-57882291D01*
X106975891Y-57878191D01*
X107062629Y-57668784D01*
X107071054Y-57648445D01*
X107130141Y-57402330D01*
X107150000Y-57150000D01*
X107130141Y-56897670D01*
X107071054Y-56651555D01*
X106974192Y-56417709D01*
X106841944Y-56201902D01*
X106677563Y-56009437D01*
X106485098Y-55845056D01*
X106269289Y-55712806D01*
X106222866Y-55693578D01*
X106167585Y-55649031D01*
X106145163Y-55581667D01*
X106162721Y-55512876D01*
X106244299Y-55454049D01*
X106369866Y-55426733D01*
X106461308Y-55406841D01*
X106584144Y-55327900D01*
X106586452Y-55325237D01*
X106679763Y-55217549D01*
X106771456Y-55016770D01*
X106975139Y-55185871D01*
X107184290Y-55308088D01*
X107410594Y-55394505D01*
X107569000Y-55426733D01*
X107569000Y-54229000D01*
X108077000Y-54229000D01*
X108077000Y-55427730D01*
X108130335Y-55420898D01*
X108362366Y-55351286D01*
X108579900Y-55244716D01*
X108777114Y-55104045D01*
X108948706Y-54933051D01*
X109090066Y-54736327D01*
X109197395Y-54519165D01*
X109267816Y-54287378D01*
X109275502Y-54229000D01*
X108077000Y-54229000D01*
X107569000Y-54229000D01*
X107569000Y-53721000D01*
X109278193Y-53721000D01*
X109222336Y-53498627D01*
X109125742Y-53276473D01*
X108994163Y-53073083D01*
X108967062Y-53043300D01*
X108936010Y-52979455D01*
X108944404Y-52908956D01*
X108989580Y-52854188D01*
X109060255Y-52832500D01*
X115718686Y-52832500D01*
X115737656Y-53009802D01*
X115761718Y-53234710D01*
X115762340Y-53253875D01*
X115765630Y-53271280D01*
X115766901Y-53283148D01*
X115767173Y-53285690D01*
X115771795Y-53303881D01*
X115855416Y-53746137D01*
X115857572Y-53765187D01*
X115862249Y-53782274D01*
X115864941Y-53796513D01*
X115871007Y-53814275D01*
X115890797Y-53886579D01*
X115989824Y-54248389D01*
X115992098Y-54260023D01*
X115993503Y-54267215D01*
X115999537Y-54283877D01*
X116000496Y-54287378D01*
X116003362Y-54297851D01*
X116010828Y-54315058D01*
X116135527Y-54659401D01*
X116164087Y-54738267D01*
X116169260Y-54756724D01*
X116176608Y-54772843D01*
X116181543Y-54786470D01*
X116190371Y-54803034D01*
X116373042Y-55203741D01*
X116377067Y-55212571D01*
X116383705Y-55230558D01*
X116383707Y-55230561D01*
X116383707Y-55230562D01*
X116392324Y-55246039D01*
X116398337Y-55259229D01*
X116408459Y-55275021D01*
X116554318Y-55537000D01*
X114596998Y-55537000D01*
X114383895Y-55583358D01*
X114383894Y-55583359D01*
X114383892Y-55583359D01*
X114261056Y-55662300D01*
X114165437Y-55772651D01*
X114104780Y-55905471D01*
X114100553Y-55934874D01*
X114084000Y-56049997D01*
X114084000Y-58250002D01*
X114167831Y-58635361D01*
X113919000Y-58583378D01*
X113919000Y-59817000D01*
X115155565Y-59817000D01*
X115100650Y-59593425D01*
X115005824Y-59370028D01*
X114876508Y-59164678D01*
X114709314Y-58975034D01*
X114711520Y-58973089D01*
X114680611Y-58927670D01*
X114678741Y-58856698D01*
X114715538Y-58795982D01*
X114800530Y-58763000D01*
X116797002Y-58763000D01*
X117010105Y-58716642D01*
X117010106Y-58716641D01*
X117010108Y-58716641D01*
X117132944Y-58637700D01*
X117228563Y-58527349D01*
X117289220Y-58394529D01*
X117310000Y-58250000D01*
X117310000Y-56919565D01*
X117330002Y-56851444D01*
X117383658Y-56804951D01*
X117453932Y-56794847D01*
X117528291Y-56833784D01*
X117585269Y-56895085D01*
X117597247Y-56910060D01*
X117610312Y-56922028D01*
X117620174Y-56932639D01*
X117626128Y-56937450D01*
X117634771Y-56944435D01*
X117795905Y-57092051D01*
X117966648Y-57248471D01*
X117979788Y-57262435D01*
X117979791Y-57262438D01*
X117993772Y-57273319D01*
X118002923Y-57281703D01*
X118004458Y-57283109D01*
X118019952Y-57293695D01*
X118330070Y-57535056D01*
X118375154Y-57570144D01*
X118389362Y-57583001D01*
X118393522Y-57585733D01*
X118404164Y-57592722D01*
X118415605Y-57601626D01*
X118431909Y-57610942D01*
X118808123Y-57858003D01*
X118823323Y-57869685D01*
X118838864Y-57878191D01*
X118850976Y-57886145D01*
X118867960Y-57894116D01*
X119262798Y-58110222D01*
X119278880Y-58120643D01*
X119295053Y-58127875D01*
X119307760Y-58134830D01*
X119307762Y-58134831D01*
X119325333Y-58141416D01*
X119736221Y-58325156D01*
X119753092Y-58334256D01*
X119760195Y-58336770D01*
X119769783Y-58340165D01*
X119783019Y-58346083D01*
X119801073Y-58351241D01*
X119917754Y-58392544D01*
X120225365Y-58501433D01*
X120242910Y-58509150D01*
X120260028Y-58513703D01*
X120273691Y-58518539D01*
X120273694Y-58518540D01*
X120273695Y-58518540D01*
X120292092Y-58522231D01*
X120430056Y-58558922D01*
X120727069Y-58637913D01*
X120745179Y-58644199D01*
X120762598Y-58647362D01*
X120776610Y-58651088D01*
X120795258Y-58653292D01*
X121238096Y-58733715D01*
X121256657Y-58738530D01*
X121256661Y-58738531D01*
X121274288Y-58740288D01*
X121288538Y-58742876D01*
X121307287Y-58743578D01*
X121755189Y-58788229D01*
X121774055Y-58791537D01*
X121791759Y-58791875D01*
X121792501Y-58791949D01*
X121792501Y-61889165D01*
X121772499Y-61957286D01*
X121718843Y-62003779D01*
X121648569Y-62013883D01*
X121600668Y-61996599D01*
X121440638Y-61898532D01*
X121440635Y-61898530D01*
X121203172Y-61800169D01*
X120953241Y-61740166D01*
X120697000Y-61720000D01*
X120440759Y-61740166D01*
X120190828Y-61800169D01*
X119985586Y-61885184D01*
X119953364Y-61898531D01*
X119734208Y-62032830D01*
X119734206Y-62032832D01*
X119734204Y-62032833D01*
X119538759Y-62199759D01*
X119375331Y-62391109D01*
X119371830Y-62395208D01*
X119351445Y-62428474D01*
X119237530Y-62614365D01*
X119179440Y-62754608D01*
X119134892Y-62809889D01*
X119067528Y-62832310D01*
X118998737Y-62814752D01*
X118941325Y-62739002D01*
X118922816Y-62669930D01*
X118826092Y-62462501D01*
X118776102Y-62391109D01*
X118048210Y-63119000D01*
X118776102Y-63846891D01*
X118826092Y-63775499D01*
X118866226Y-63689430D01*
X118913143Y-63636144D01*
X118981420Y-63616683D01*
X119049380Y-63637225D01*
X119102940Y-63713265D01*
X119139169Y-63864172D01*
X119237222Y-64100891D01*
X119237531Y-64101636D01*
X119371830Y-64320792D01*
X119371832Y-64320794D01*
X119371833Y-64320796D01*
X119466810Y-64432000D01*
X119538759Y-64516241D01*
X119734208Y-64683170D01*
X119953364Y-64817469D01*
X119953366Y-64817470D01*
X120190828Y-64915831D01*
X120440759Y-64975834D01*
X120697000Y-64996000D01*
X120953241Y-64975834D01*
X121203172Y-64915831D01*
X121440635Y-64817470D01*
X121536515Y-64758714D01*
X121600667Y-64719402D01*
X121669200Y-64700864D01*
X121736876Y-64722320D01*
X121782209Y-64776959D01*
X121792501Y-64826835D01*
X121792501Y-67238980D01*
X121772499Y-67307101D01*
X121718843Y-67353594D01*
X121648569Y-67363698D01*
X121583989Y-67334204D01*
X121544795Y-67271592D01*
X121511871Y-67148723D01*
X121502816Y-67114928D01*
X121454344Y-67010980D01*
X121406092Y-66907501D01*
X121274813Y-66720016D01*
X121112984Y-66558187D01*
X120925499Y-66426908D01*
X120850001Y-66391703D01*
X120718072Y-66330184D01*
X120497000Y-66270947D01*
X120269000Y-66251000D01*
X120041000Y-66270947D01*
X119819928Y-66330184D01*
X119687999Y-66391703D01*
X119612501Y-66426908D01*
X119425016Y-66558187D01*
X119263187Y-66720016D01*
X119131908Y-66907501D01*
X119096703Y-66982999D01*
X119035184Y-67114928D01*
X118975947Y-67336000D01*
X118956000Y-67564000D01*
X118975947Y-67792000D01*
X119035184Y-68013072D01*
X119082460Y-68114455D01*
X119131908Y-68220499D01*
X119263187Y-68407984D01*
X119425016Y-68569813D01*
X119612501Y-68701092D01*
X119687999Y-68736297D01*
X119819928Y-68797816D01*
X120041000Y-68857053D01*
X120269000Y-68877000D01*
X120367751Y-68868360D01*
X120466502Y-68859722D01*
X120466501Y-75485553D01*
X120203004Y-75414948D01*
X120203000Y-75414947D01*
X119975000Y-75395000D01*
X119747000Y-75414947D01*
X119525928Y-75474184D01*
X119427032Y-75520300D01*
X119318501Y-75570908D01*
X119131016Y-75702187D01*
X118975680Y-75857523D01*
X118913368Y-75891549D01*
X118842553Y-75886484D01*
X118785717Y-75843937D01*
X118763465Y-75795212D01*
X118741642Y-75694895D01*
X118741641Y-75694894D01*
X118741641Y-75694892D01*
X118662700Y-75572056D01*
X118612877Y-75528884D01*
X118552349Y-75476437D01*
X118547416Y-75474184D01*
X118419529Y-75415780D01*
X118347265Y-75405390D01*
X118275003Y-75395000D01*
X116674998Y-75395000D01*
X116461895Y-75441358D01*
X116461894Y-75441359D01*
X116461892Y-75441359D01*
X116339056Y-75520300D01*
X116339055Y-75520301D01*
X116295204Y-75570908D01*
X116243437Y-75630651D01*
X116182780Y-75763471D01*
X116172390Y-75835736D01*
X116165094Y-75886484D01*
X116162000Y-75908000D01*
X116162000Y-77396500D01*
X115143200Y-77396500D01*
X115143200Y-77139797D01*
X115096842Y-76926695D01*
X115096841Y-76926694D01*
X115096841Y-76926692D01*
X115017900Y-76803856D01*
X114907549Y-76708237D01*
X114774729Y-76647580D01*
X114774727Y-76647580D01*
X114719385Y-76622306D01*
X114879866Y-76398971D01*
X114932065Y-76326329D01*
X114946507Y-76297108D01*
X115039395Y-76109165D01*
X115070422Y-76007042D01*
X115109816Y-75877380D01*
X115141435Y-75637210D01*
X115143200Y-75565000D01*
X115130932Y-75415780D01*
X115123352Y-75323576D01*
X115064337Y-75088627D01*
X114967742Y-74866473D01*
X114836163Y-74663083D01*
X114673131Y-74483913D01*
X114570157Y-74402590D01*
X114483023Y-74333776D01*
X114483020Y-74333774D01*
X114428028Y-74290345D01*
X114619116Y-74154043D01*
X114790706Y-73983051D01*
X114932065Y-73786329D01*
X114960858Y-73728072D01*
X115039395Y-73569165D01*
X115039396Y-73569162D01*
X115109816Y-73337380D01*
X115141435Y-73097210D01*
X115143200Y-73025000D01*
X115139546Y-72980557D01*
X115123352Y-72783576D01*
X115064337Y-72548627D01*
X114967742Y-72326473D01*
X114836163Y-72123083D01*
X114673131Y-71943913D01*
X114483022Y-71793775D01*
X114270951Y-71676705D01*
X114012598Y-71585217D01*
X114282704Y-71316055D01*
X114416505Y-71129851D01*
X114504150Y-71231031D01*
X114504151Y-71231033D01*
X114662758Y-71414134D01*
X114849139Y-71568871D01*
X115058291Y-71691089D01*
X115284595Y-71777506D01*
X115284598Y-71777507D01*
X115521975Y-71825803D01*
X115764052Y-71834678D01*
X115764056Y-71834678D01*
X116004335Y-71803898D01*
X116236361Y-71734287D01*
X116236364Y-71734286D01*
X116236366Y-71734285D01*
X116453900Y-71627717D01*
X116554143Y-71556213D01*
X116651116Y-71487043D01*
X116651118Y-71487041D01*
X116735032Y-71427185D01*
X116884101Y-71659145D01*
X116994451Y-71754763D01*
X117127274Y-71815420D01*
X117271797Y-71836200D01*
X117983000Y-71836200D01*
X117983000Y-70612000D01*
X118491000Y-70612000D01*
X118491000Y-71836200D01*
X119202202Y-71836200D01*
X119415305Y-71789842D01*
X119538145Y-71710899D01*
X119633763Y-71600549D01*
X119694420Y-71467726D01*
X119715200Y-71323203D01*
X119715200Y-70612000D01*
X118491000Y-70612000D01*
X117983000Y-70612000D01*
X117983000Y-68879800D01*
X118491000Y-68879800D01*
X118491000Y-70104000D01*
X119715200Y-70104000D01*
X119715200Y-69392798D01*
X119668842Y-69179695D01*
X119589899Y-69056855D01*
X119479549Y-68961237D01*
X119346726Y-68900580D01*
X119202203Y-68879800D01*
X118491000Y-68879800D01*
X117983000Y-68879800D01*
X117271798Y-68879800D01*
X117058695Y-68926158D01*
X116935855Y-69005101D01*
X116840237Y-69115451D01*
X116750232Y-69312533D01*
X116705132Y-69276915D01*
X116705130Y-69276913D01*
X116515023Y-69126776D01*
X116515024Y-69126776D01*
X116515022Y-69126775D01*
X116302951Y-69009705D01*
X116262278Y-68995302D01*
X116074600Y-68928842D01*
X116074598Y-68928842D01*
X116074596Y-68928841D01*
X115901832Y-68898067D01*
X115836111Y-68886360D01*
X115593886Y-68883401D01*
X115593882Y-68883401D01*
X115354430Y-68920043D01*
X115124171Y-68995302D01*
X114909303Y-69107156D01*
X114909302Y-69107157D01*
X114715584Y-69252605D01*
X114658316Y-69312533D01*
X114548223Y-69427739D01*
X114425875Y-69607092D01*
X114328165Y-69456085D01*
X114165131Y-69276913D01*
X113975022Y-69126775D01*
X113762951Y-69009705D01*
X113722278Y-68995302D01*
X113534600Y-68928842D01*
X113534598Y-68928842D01*
X113534596Y-68928841D01*
X113391403Y-68903334D01*
X113327845Y-68871696D01*
X113291482Y-68810719D01*
X113293859Y-68739762D01*
X113341228Y-68676074D01*
X113492984Y-68569813D01*
X113654813Y-68407984D01*
X113786092Y-68220499D01*
X113835540Y-68114455D01*
X113882816Y-68013072D01*
X113942053Y-67792000D01*
X113962000Y-67564000D01*
X113942053Y-67336000D01*
X113882816Y-67114928D01*
X113821297Y-66982999D01*
X113786092Y-66907501D01*
X113654813Y-66720016D01*
X113492984Y-66558187D01*
X113305499Y-66426908D01*
X113230001Y-66391703D01*
X113098072Y-66330184D01*
X112877000Y-66270947D01*
X112649000Y-66251000D01*
X112421000Y-66270947D01*
X112199928Y-66330184D01*
X112067999Y-66391703D01*
X111992501Y-66426908D01*
X111805016Y-66558187D01*
X111700820Y-66662383D01*
X111638508Y-66696409D01*
X111567693Y-66691344D01*
X111510857Y-66648797D01*
X111486046Y-66582277D01*
X111490019Y-66540676D01*
X111529052Y-66395004D01*
X111529053Y-66395000D01*
X111549000Y-66167000D01*
X111529053Y-65939000D01*
X111469816Y-65717928D01*
X111408297Y-65585999D01*
X111373092Y-65510501D01*
X111241813Y-65323016D01*
X111079985Y-65161188D01*
X111079982Y-65161186D01*
X111079980Y-65161184D01*
X111079624Y-65160935D01*
X111079195Y-65160398D01*
X111072186Y-65153389D01*
X111072968Y-65152607D01*
X111035296Y-65105479D01*
X111027986Y-65034860D01*
X111060017Y-64971499D01*
X111122481Y-64935203D01*
X111203172Y-64915831D01*
X111440634Y-64817470D01*
X111440636Y-64817469D01*
X111659792Y-64683170D01*
X111855241Y-64516241D01*
X111927190Y-64432000D01*
X112022167Y-64320796D01*
X112022168Y-64320794D01*
X112022170Y-64320792D01*
X112156469Y-64101636D01*
X112156778Y-64100891D01*
X112254831Y-63864172D01*
X112314834Y-63614241D01*
X112335000Y-63358000D01*
X112314834Y-63101759D01*
X112254831Y-62851828D01*
X112156470Y-62614366D01*
X112042555Y-62428474D01*
X112022170Y-62395208D01*
X112018670Y-62391109D01*
X111957081Y-62318997D01*
X113876000Y-62318997D01*
X113876000Y-63919002D01*
X113915730Y-64101636D01*
X113922359Y-64132108D01*
X114001300Y-64254944D01*
X114111651Y-64350563D01*
X114244471Y-64411220D01*
X114316736Y-64421610D01*
X114388997Y-64432000D01*
X115989002Y-64432000D01*
X116202105Y-64385642D01*
X116202106Y-64385641D01*
X116202108Y-64385641D01*
X116324944Y-64306700D01*
X116412112Y-64206102D01*
X116961109Y-64206102D01*
X117032501Y-64256092D01*
X117239930Y-64352816D01*
X117460996Y-64412052D01*
X117689000Y-64431999D01*
X117917004Y-64412052D01*
X118138070Y-64352816D01*
X118345499Y-64256092D01*
X118416891Y-64206102D01*
X117689000Y-63478210D01*
X116961109Y-64206102D01*
X116412112Y-64206102D01*
X116420563Y-64196349D01*
X116481220Y-64063529D01*
X116497334Y-63951455D01*
X117329790Y-63119000D01*
X116494274Y-62283485D01*
X116455642Y-62105895D01*
X116455641Y-62105894D01*
X116455641Y-62105892D01*
X116408089Y-62031898D01*
X116961109Y-62031898D01*
X117689000Y-62759790D01*
X118416891Y-62031898D01*
X118345499Y-61981908D01*
X118138070Y-61885184D01*
X117917004Y-61825948D01*
X117689000Y-61806001D01*
X117460996Y-61825948D01*
X117239930Y-61885184D01*
X117032501Y-61981908D01*
X116961109Y-62031898D01*
X116408089Y-62031898D01*
X116376700Y-61983056D01*
X116266349Y-61887437D01*
X116133529Y-61826780D01*
X116061265Y-61816390D01*
X115989003Y-61806000D01*
X114388998Y-61806000D01*
X114175895Y-61852358D01*
X114175894Y-61852359D01*
X114175892Y-61852359D01*
X114053056Y-61931300D01*
X113957437Y-62041651D01*
X113896780Y-62174471D01*
X113896780Y-62174474D01*
X113876000Y-62318997D01*
X111957081Y-62318997D01*
X111855241Y-62199759D01*
X111659796Y-62032833D01*
X111659794Y-62032832D01*
X111659792Y-62032830D01*
X111440636Y-61898531D01*
X111408414Y-61885184D01*
X111203172Y-61800169D01*
X110953241Y-61740166D01*
X110697000Y-61720000D01*
X110440759Y-61740166D01*
X110190828Y-61800169D01*
X109985586Y-61885184D01*
X109953364Y-61898531D01*
X109734208Y-62032830D01*
X109734206Y-62032832D01*
X109734204Y-62032833D01*
X109538759Y-62199759D01*
X109375331Y-62391109D01*
X109371830Y-62395208D01*
X109351445Y-62428474D01*
X109237530Y-62614366D01*
X109139169Y-62851828D01*
X109079166Y-63101759D01*
X109059000Y-63358000D01*
X109079166Y-63614241D01*
X109139169Y-63864172D01*
X109237222Y-64100891D01*
X109237531Y-64101636D01*
X109371830Y-64320792D01*
X109371832Y-64320794D01*
X109371833Y-64320796D01*
X109466810Y-64432000D01*
X109538759Y-64516241D01*
X109734208Y-64683170D01*
X109788735Y-64716584D01*
X109836365Y-64769231D01*
X109847972Y-64839273D01*
X109819869Y-64904470D01*
X109776151Y-64938209D01*
X109579500Y-65029909D01*
X109393143Y-65160398D01*
X109392016Y-65161187D01*
X109230187Y-65323016D01*
X109098908Y-65510501D01*
X109063703Y-65585999D01*
X109002184Y-65717928D01*
X108942947Y-65939000D01*
X108923000Y-66167000D01*
X108942947Y-66395000D01*
X109002184Y-66616072D01*
X109037284Y-66691344D01*
X109098908Y-66823499D01*
X109230187Y-67010984D01*
X109392016Y-67172813D01*
X109579501Y-67304092D01*
X109644078Y-67334204D01*
X109786928Y-67400816D01*
X110008000Y-67460053D01*
X110236000Y-67480000D01*
X110464000Y-67460053D01*
X110685072Y-67400816D01*
X110827922Y-67334204D01*
X110892499Y-67304092D01*
X111079984Y-67172813D01*
X111184180Y-67068617D01*
X111246492Y-67034591D01*
X111317307Y-67039656D01*
X111374143Y-67082203D01*
X111398954Y-67148723D01*
X111394981Y-67190324D01*
X111356428Y-67334204D01*
X111355947Y-67336000D01*
X111336000Y-67564000D01*
X111355947Y-67792000D01*
X111415184Y-68013072D01*
X111462460Y-68114455D01*
X111511908Y-68220499D01*
X111643187Y-68407984D01*
X111805016Y-68569813D01*
X111992501Y-68701092D01*
X112067999Y-68736297D01*
X112199928Y-68797816D01*
X112293508Y-68822891D01*
X112391086Y-68849038D01*
X112451708Y-68885989D01*
X112482730Y-68949850D01*
X112474300Y-69020345D01*
X112416655Y-69082506D01*
X112369302Y-69107157D01*
X112175584Y-69252605D01*
X112118316Y-69312533D01*
X112008221Y-69427741D01*
X111871715Y-69627851D01*
X111871713Y-69627854D01*
X111871713Y-69627855D01*
X111769720Y-69847580D01*
X111704983Y-70081013D01*
X111679241Y-70321884D01*
X111679241Y-70321887D01*
X111685487Y-70430210D01*
X111693186Y-70563726D01*
X111746442Y-70800042D01*
X111837580Y-71024487D01*
X111964151Y-71231033D01*
X112122758Y-71414134D01*
X112309139Y-71568871D01*
X112518291Y-71691089D01*
X112744595Y-71777506D01*
X112744597Y-71777506D01*
X112799385Y-71798428D01*
X112683589Y-71919602D01*
X112683584Y-71919605D01*
X112593912Y-72013442D01*
X112516221Y-72094741D01*
X112379715Y-72294851D01*
X112379713Y-72294854D01*
X112379713Y-72294855D01*
X112277720Y-72514580D01*
X112212983Y-72748013D01*
X112188131Y-72980557D01*
X112187241Y-72988887D01*
X112201186Y-73230727D01*
X112254442Y-73467042D01*
X112323479Y-73637058D01*
X112345580Y-73691487D01*
X112472151Y-73898033D01*
X112515482Y-73948056D01*
X112630759Y-74081135D01*
X112895225Y-74300700D01*
X112877302Y-74314157D01*
X112683584Y-74459605D01*
X112632735Y-74512816D01*
X112516221Y-74634741D01*
X112379715Y-74834851D01*
X112379713Y-74834854D01*
X112379713Y-74834855D01*
X112277720Y-75054580D01*
X112212983Y-75288013D01*
X112187241Y-75528884D01*
X112187241Y-75528887D01*
X112201186Y-75770727D01*
X112254442Y-76007042D01*
X112345440Y-76231141D01*
X112345580Y-76231487D01*
X112472151Y-76438033D01*
X112608189Y-76595079D01*
X112363857Y-76752099D01*
X112363856Y-76752100D01*
X112268237Y-76862451D01*
X112207580Y-76995271D01*
X112207580Y-76995274D01*
X112186800Y-77139797D01*
X112186800Y-79070202D01*
X112224193Y-79242092D01*
X112233159Y-79283308D01*
X112312100Y-79406144D01*
X112422451Y-79501763D01*
X112555271Y-79562420D01*
X112627535Y-79572810D01*
X112699797Y-79583200D01*
X114630202Y-79583200D01*
X114843305Y-79536842D01*
X114843306Y-79536841D01*
X114843308Y-79536841D01*
X114966144Y-79457900D01*
X115061763Y-79347549D01*
X115122420Y-79214729D01*
X115132810Y-79142465D01*
X115143200Y-79070203D01*
X115143200Y-78813500D01*
X120332351Y-78813500D01*
X120371679Y-78816181D01*
X120391342Y-78817522D01*
X120391343Y-78817522D01*
X120434296Y-78810025D01*
X120457511Y-78805974D01*
X120497624Y-78801120D01*
X120524199Y-78797904D01*
X120541747Y-78791273D01*
X120560224Y-78788048D01*
X120621728Y-78761050D01*
X120684564Y-78737306D01*
X120700026Y-78726679D01*
X120717203Y-78719139D01*
X120770485Y-78678254D01*
X120825848Y-78640204D01*
X120867368Y-78593603D01*
X121577405Y-77883567D01*
X121639717Y-77849542D01*
X121710533Y-77854607D01*
X121767368Y-77897154D01*
X121792500Y-77972663D01*
X121792500Y-81373455D01*
X121772498Y-81441576D01*
X121718842Y-81488069D01*
X121648568Y-81498173D01*
X121583988Y-81468679D01*
X121552305Y-81426705D01*
X121533090Y-81385499D01*
X121401813Y-81198016D01*
X121239984Y-81036187D01*
X121052499Y-80904908D01*
X120845076Y-80808186D01*
X120650000Y-80755915D01*
X120650000Y-82296000D01*
X119109915Y-82296000D01*
X119162186Y-82491076D01*
X119258908Y-82698499D01*
X119390187Y-82885984D01*
X119473608Y-82969405D01*
X119507634Y-83031717D01*
X119502569Y-83102532D01*
X119460022Y-83159368D01*
X119384513Y-83184500D01*
X113787487Y-83184500D01*
X113719366Y-83164498D01*
X113672873Y-83110842D01*
X113662769Y-83040568D01*
X113698392Y-82969405D01*
X113781813Y-82885984D01*
X113913092Y-82698499D01*
X113957152Y-82604010D01*
X114009816Y-82491072D01*
X114069053Y-82270000D01*
X114089000Y-82042000D01*
X114069053Y-81814000D01*
X114062087Y-81788000D01*
X119109915Y-81788000D01*
X120142000Y-81788000D01*
X120142000Y-80755915D01*
X119946924Y-80808186D01*
X119739501Y-80904908D01*
X119552016Y-81036187D01*
X119390187Y-81198016D01*
X119258908Y-81385501D01*
X119162186Y-81592924D01*
X119109915Y-81788000D01*
X114062087Y-81788000D01*
X114009816Y-81592928D01*
X113932305Y-81426705D01*
X113913092Y-81385501D01*
X113781813Y-81198016D01*
X113619984Y-81036187D01*
X113432499Y-80904908D01*
X113357001Y-80869703D01*
X113225072Y-80808184D01*
X113004000Y-80748947D01*
X112776000Y-80729000D01*
X112548000Y-80748947D01*
X112326928Y-80808184D01*
X112194999Y-80869703D01*
X112119501Y-80904908D01*
X111932016Y-81036187D01*
X111770187Y-81198016D01*
X111600977Y-81439672D01*
X111407163Y-81140083D01*
X111244131Y-80960913D01*
X111054022Y-80810775D01*
X110841951Y-80693705D01*
X110801278Y-80679302D01*
X110613600Y-80612842D01*
X110613598Y-80612842D01*
X110613596Y-80612841D01*
X110440832Y-80582067D01*
X110375111Y-80570360D01*
X110132886Y-80567401D01*
X110132882Y-80567401D01*
X109893430Y-80604043D01*
X109663171Y-80679302D01*
X109448303Y-80791156D01*
X109422173Y-80810775D01*
X109254584Y-80936605D01*
X109215921Y-80977064D01*
X109087223Y-81111739D01*
X108964875Y-81291092D01*
X108867165Y-81140085D01*
X108704131Y-80960913D01*
X108514022Y-80810775D01*
X108301951Y-80693705D01*
X108261278Y-80679302D01*
X108073600Y-80612842D01*
X108073598Y-80612842D01*
X108073596Y-80612841D01*
X107900832Y-80582067D01*
X107835111Y-80570360D01*
X107592886Y-80567401D01*
X107592882Y-80567401D01*
X107401321Y-80596715D01*
X107353430Y-80604043D01*
X107341812Y-80607841D01*
X107283024Y-80627054D01*
X105014970Y-78359000D01*
X108949915Y-78359000D01*
X109002186Y-78554076D01*
X109098908Y-78761499D01*
X109230187Y-78948984D01*
X109392016Y-79110813D01*
X109579501Y-79242092D01*
X109786924Y-79338814D01*
X109982000Y-79391085D01*
X109982000Y-78359000D01*
X110490000Y-78359000D01*
X110490000Y-79391085D01*
X110685076Y-79338814D01*
X110892499Y-79242092D01*
X111079984Y-79110813D01*
X111241813Y-78948984D01*
X111373092Y-78761499D01*
X111469814Y-78554076D01*
X111522085Y-78359000D01*
X110490000Y-78359000D01*
X109982000Y-78359000D01*
X108949915Y-78359000D01*
X105014970Y-78359000D01*
X104564499Y-77908530D01*
X104564499Y-77851000D01*
X108949915Y-77851000D01*
X109982000Y-77851000D01*
X110490000Y-77851000D01*
X111522085Y-77851000D01*
X111469814Y-77655924D01*
X111373092Y-77448501D01*
X111241813Y-77261016D01*
X111079984Y-77099187D01*
X110892499Y-76967908D01*
X110685076Y-76871186D01*
X110490000Y-76818915D01*
X110490000Y-77851000D01*
X109982000Y-77851000D01*
X109982000Y-76818915D01*
X109786924Y-76871186D01*
X109579501Y-76967908D01*
X109392016Y-77099187D01*
X109230187Y-77261016D01*
X109098908Y-77448501D01*
X109002186Y-77655924D01*
X108949915Y-77851000D01*
X104564499Y-77851000D01*
X104564499Y-76492669D01*
X104724049Y-76529357D01*
X104724053Y-76529359D01*
X104956907Y-76582903D01*
X105195453Y-76596449D01*
X105195454Y-76596449D01*
X105432868Y-76569610D01*
X105432871Y-76569609D01*
X105432872Y-76569609D01*
X105662374Y-76503149D01*
X105662375Y-76503149D01*
X105662377Y-76503148D01*
X105877395Y-76398973D01*
X106071795Y-76260053D01*
X106113100Y-76218385D01*
X106175263Y-76184088D01*
X106246100Y-76188843D01*
X106303121Y-76231141D01*
X106325704Y-76280307D01*
X106329359Y-76297108D01*
X106408300Y-76419944D01*
X106518651Y-76515563D01*
X106651471Y-76576220D01*
X106723736Y-76586610D01*
X106795997Y-76597000D01*
X108596002Y-76597000D01*
X108809105Y-76550642D01*
X108809106Y-76550641D01*
X108809108Y-76550641D01*
X108931944Y-76471700D01*
X108961117Y-76438033D01*
X109027563Y-76361349D01*
X109043557Y-76326327D01*
X109088220Y-76228529D01*
X109105382Y-76109165D01*
X109109000Y-76084003D01*
X109109000Y-74283998D01*
X109062642Y-74070895D01*
X109062641Y-74070894D01*
X109062641Y-74070892D01*
X108983700Y-73948056D01*
X108969210Y-73935500D01*
X108873349Y-73852437D01*
X108740529Y-73791780D01*
X108668265Y-73781390D01*
X108596003Y-73771000D01*
X106795998Y-73771000D01*
X106582895Y-73817358D01*
X106582894Y-73817359D01*
X106582892Y-73817359D01*
X106460056Y-73896300D01*
X106460055Y-73896301D01*
X106364436Y-74006652D01*
X106239553Y-74280105D01*
X106092282Y-74125726D01*
X106092280Y-74125724D01*
X105932241Y-74006652D01*
X105900589Y-73983102D01*
X105687605Y-73874815D01*
X105687602Y-73874814D01*
X105687600Y-73874813D01*
X105459426Y-73803963D01*
X105459423Y-73803963D01*
X105459421Y-73803962D01*
X105222561Y-73772569D01*
X105222558Y-73772569D01*
X105103180Y-73777050D01*
X104983799Y-73781532D01*
X104749960Y-73830597D01*
X104564499Y-73903838D01*
X104564499Y-73575591D01*
X104568521Y-73516598D01*
X104566846Y-73507000D01*
X104556972Y-73450420D01*
X104548904Y-73383749D01*
X104548903Y-73383746D01*
X104542272Y-73366196D01*
X104539046Y-73347715D01*
X104512047Y-73286210D01*
X104488305Y-73223378D01*
X104477679Y-73207917D01*
X104470138Y-73190738D01*
X104429254Y-73137457D01*
X104391202Y-73082093D01*
X104383652Y-73075366D01*
X104344611Y-73040582D01*
X103914095Y-72610066D01*
X103929409Y-72435020D01*
X103939117Y-72324058D01*
X108933117Y-72324058D01*
X108953064Y-72552058D01*
X109012301Y-72773130D01*
X109073820Y-72905059D01*
X109109025Y-72980557D01*
X109240304Y-73168042D01*
X109402133Y-73329871D01*
X109402136Y-73329873D01*
X109402137Y-73329874D01*
X109427614Y-73347713D01*
X109589618Y-73461150D01*
X109665116Y-73496355D01*
X109797045Y-73557874D01*
X110018117Y-73617111D01*
X110246117Y-73637058D01*
X110474117Y-73617111D01*
X110695189Y-73557874D01*
X110827118Y-73496355D01*
X110902616Y-73461150D01*
X111064620Y-73347713D01*
X111090097Y-73329874D01*
X111090098Y-73329873D01*
X111090101Y-73329871D01*
X111251930Y-73168042D01*
X111383209Y-72980557D01*
X111418414Y-72905059D01*
X111479933Y-72773130D01*
X111539170Y-72552058D01*
X111559117Y-72324058D01*
X111539170Y-72096058D01*
X111479933Y-71874986D01*
X111394181Y-71691089D01*
X111383209Y-71667559D01*
X111251930Y-71480074D01*
X111090101Y-71318245D01*
X111086974Y-71316055D01*
X110902617Y-71186967D01*
X110902616Y-71186966D01*
X110827118Y-71151761D01*
X110695189Y-71090242D01*
X110474117Y-71031005D01*
X110246117Y-71011058D01*
X110018117Y-71031005D01*
X109797045Y-71090242D01*
X109665116Y-71151761D01*
X109589618Y-71186966D01*
X109589617Y-71186967D01*
X109405261Y-71316055D01*
X109402133Y-71318245D01*
X109240304Y-71480074D01*
X109109025Y-71667559D01*
X109098053Y-71691089D01*
X109012301Y-71874986D01*
X108953064Y-72096058D01*
X108933117Y-72324058D01*
X103939117Y-72324058D01*
X103919170Y-72096058D01*
X103859933Y-71874986D01*
X103774181Y-71691089D01*
X103763209Y-71667559D01*
X103631930Y-71480074D01*
X103470101Y-71318245D01*
X103466974Y-71316055D01*
X103282617Y-71186967D01*
X103282616Y-71186966D01*
X103207118Y-71151761D01*
X103075189Y-71090242D01*
X102854117Y-71031005D01*
X102626117Y-71011058D01*
X102398117Y-71031005D01*
X102177045Y-71090242D01*
X102045116Y-71151761D01*
X101969618Y-71186966D01*
X101969617Y-71186967D01*
X101785261Y-71316055D01*
X101782133Y-71318245D01*
X101620304Y-71480074D01*
X101489025Y-71667559D01*
X101478053Y-71691089D01*
X101392301Y-71874986D01*
X101367913Y-71966001D01*
X101288031Y-72264116D01*
X101113502Y-72141910D01*
X101073127Y-72123083D01*
X100906072Y-72045184D01*
X100906069Y-72045183D01*
X100901267Y-72042944D01*
X100847981Y-71996027D01*
X100828520Y-71927750D01*
X100849061Y-71859790D01*
X100927733Y-71805629D01*
X101000305Y-71789842D01*
X101123145Y-71710899D01*
X101218763Y-71600549D01*
X101279420Y-71467726D01*
X101300200Y-71323203D01*
X101300200Y-70612000D01*
X100076000Y-70612000D01*
X100076000Y-72013442D01*
X100007930Y-72045183D01*
X100007928Y-72045184D01*
X99800500Y-72141909D01*
X99613020Y-72273184D01*
X99613016Y-72273187D01*
X99451187Y-72435016D01*
X99319908Y-72622501D01*
X99284703Y-72697999D01*
X99223184Y-72829928D01*
X99182822Y-72980558D01*
X99166739Y-73040582D01*
X99163947Y-73051000D01*
X99144000Y-73279000D01*
X99163947Y-73507000D01*
X99223184Y-73728072D01*
X99264819Y-73817358D01*
X99319908Y-73935499D01*
X99451187Y-74122984D01*
X99613016Y-74284813D01*
X99613019Y-74284815D01*
X99613020Y-74284816D01*
X99635705Y-74300700D01*
X99800501Y-74416092D01*
X99875999Y-74451297D01*
X100007928Y-74512816D01*
X100229000Y-74572053D01*
X100457000Y-74592000D01*
X100685000Y-74572053D01*
X100906072Y-74512816D01*
X101038001Y-74451297D01*
X101113499Y-74416092D01*
X101278295Y-74300700D01*
X101300980Y-74284816D01*
X101300981Y-74284815D01*
X101300984Y-74284813D01*
X101462813Y-74122984D01*
X101594092Y-73935499D01*
X101649181Y-73817358D01*
X101690816Y-73728072D01*
X101721908Y-73612036D01*
X101795086Y-73338942D01*
X101969615Y-73461148D01*
X101969617Y-73461149D01*
X102177045Y-73557874D01*
X102398117Y-73617111D01*
X102626117Y-73637058D01*
X102854117Y-73617111D01*
X102854118Y-73617111D01*
X102912125Y-73612036D01*
X103147500Y-73847411D01*
X103147499Y-76893272D01*
X103065077Y-76871186D01*
X103065072Y-76871184D01*
X102844000Y-76811947D01*
X102616000Y-76792000D01*
X102388000Y-76811947D01*
X102166928Y-76871184D01*
X102047884Y-76926695D01*
X101959501Y-76967908D01*
X101846854Y-77046785D01*
X101817270Y-77067500D01*
X101772016Y-77099187D01*
X101610185Y-77261018D01*
X101545236Y-77353775D01*
X101489779Y-77398104D01*
X101419160Y-77405413D01*
X101355799Y-77373383D01*
X101320317Y-77314117D01*
X101317753Y-77304548D01*
X101309816Y-77274928D01*
X101227867Y-77099187D01*
X101213092Y-77067501D01*
X101081813Y-76880016D01*
X100919984Y-76718187D01*
X100732499Y-76586908D01*
X100609083Y-76529359D01*
X100525072Y-76490184D01*
X100304000Y-76430947D01*
X100076000Y-76411000D01*
X99848000Y-76430947D01*
X99626928Y-76490184D01*
X99542917Y-76529359D01*
X99419501Y-76586908D01*
X99232016Y-76718187D01*
X99070187Y-76880016D01*
X98938908Y-77067501D01*
X98924133Y-77099187D01*
X98842184Y-77274928D01*
X98782947Y-77496000D01*
X98763000Y-77724000D01*
X98782947Y-77952000D01*
X98842184Y-78173072D01*
X98903703Y-78305001D01*
X98938908Y-78380499D01*
X99070187Y-78567984D01*
X99232016Y-78729813D01*
X99232019Y-78729815D01*
X99232020Y-78729816D01*
X99306854Y-78782215D01*
X99419501Y-78861092D01*
X99494999Y-78896297D01*
X99626928Y-78957816D01*
X99848000Y-79017053D01*
X100076000Y-79037000D01*
X100304000Y-79017053D01*
X100525072Y-78957816D01*
X100657001Y-78896297D01*
X100732499Y-78861092D01*
X100845146Y-78782215D01*
X100919980Y-78729816D01*
X100919981Y-78729815D01*
X100919984Y-78729813D01*
X101081815Y-78567982D01*
X101146764Y-78475225D01*
X101202221Y-78430896D01*
X101272840Y-78423587D01*
X101336201Y-78455617D01*
X101371683Y-78514883D01*
X101382184Y-78554072D01*
X101422348Y-78640204D01*
X101478908Y-78761499D01*
X101610187Y-78948984D01*
X101772016Y-79110813D01*
X101959501Y-79242092D01*
X102034999Y-79277297D01*
X102166928Y-79338816D01*
X102388000Y-79398053D01*
X102616000Y-79418000D01*
X102844000Y-79398053D01*
X103065072Y-79338816D01*
X103197001Y-79277297D01*
X103272499Y-79242092D01*
X103459980Y-79110816D01*
X103611413Y-78959383D01*
X105021332Y-80369302D01*
X105055358Y-80431614D01*
X105050293Y-80502429D01*
X105007746Y-80559265D01*
X104951296Y-80582947D01*
X104813430Y-80604043D01*
X104583171Y-80679302D01*
X104368304Y-80791156D01*
X104120699Y-80977064D01*
X103968901Y-80740857D01*
X103955219Y-80729001D01*
X103858549Y-80645237D01*
X103725729Y-80584580D01*
X103653464Y-80574190D01*
X103581203Y-80563800D01*
X101650798Y-80563800D01*
X101437695Y-80610158D01*
X101437694Y-80610159D01*
X101437692Y-80610159D01*
X101314856Y-80689100D01*
X101219237Y-80799451D01*
X101158580Y-80932271D01*
X101158580Y-80932274D01*
X101143640Y-81036184D01*
X101137800Y-81076800D01*
X101137800Y-83007200D01*
X101176369Y-83184500D01*
X99155863Y-83184500D01*
X99087742Y-83164498D01*
X99041249Y-83110842D01*
X99031145Y-83040568D01*
X99053540Y-82984974D01*
X99184066Y-82803327D01*
X99291395Y-82586165D01*
X99361816Y-82354378D01*
X99369502Y-82296000D01*
X97663000Y-82296000D01*
X97663000Y-81788000D01*
X98171000Y-81788000D01*
X99372193Y-81788000D01*
X99316336Y-81565627D01*
X99219742Y-81343473D01*
X99088163Y-81140083D01*
X98925131Y-80960913D01*
X98735022Y-80810775D01*
X98522951Y-80693705D01*
X98294597Y-80612841D01*
X98171000Y-80590825D01*
X98171000Y-81788000D01*
X97663000Y-81788000D01*
X97663000Y-80590490D01*
X97574430Y-80604043D01*
X97344171Y-80679302D01*
X97129304Y-80791156D01*
X96881699Y-80977064D01*
X96729901Y-80740857D01*
X96716219Y-80729001D01*
X96619549Y-80645237D01*
X96486729Y-80584580D01*
X96414464Y-80574190D01*
X96342203Y-80563800D01*
X94411798Y-80563800D01*
X94198695Y-80610158D01*
X94198694Y-80610159D01*
X94198692Y-80610159D01*
X94075856Y-80689100D01*
X93980237Y-80799451D01*
X93919580Y-80932271D01*
X93919580Y-80932274D01*
X93904640Y-81036184D01*
X93898800Y-81076800D01*
X93898800Y-83007200D01*
X93937369Y-83184500D01*
X91186500Y-83184500D01*
X91186500Y-77724000D01*
X93763000Y-77724000D01*
X93782947Y-77952000D01*
X93842184Y-78173072D01*
X93903703Y-78305001D01*
X93938908Y-78380499D01*
X94070187Y-78567984D01*
X94232016Y-78729813D01*
X94232019Y-78729815D01*
X94232020Y-78729816D01*
X94306854Y-78782215D01*
X94419501Y-78861092D01*
X94494999Y-78896297D01*
X94626928Y-78957816D01*
X94848000Y-79017053D01*
X95076000Y-79037000D01*
X95304000Y-79017053D01*
X95525072Y-78957816D01*
X95657001Y-78896297D01*
X95732499Y-78861092D01*
X95845146Y-78782215D01*
X95919980Y-78729816D01*
X95919981Y-78729815D01*
X95919984Y-78729813D01*
X96081813Y-78567984D01*
X96213092Y-78380499D01*
X96248297Y-78305001D01*
X96309816Y-78173072D01*
X96369053Y-77952000D01*
X96389000Y-77724000D01*
X96369053Y-77496000D01*
X96309816Y-77274928D01*
X96227867Y-77099187D01*
X96213092Y-77067501D01*
X96081813Y-76880016D01*
X95919984Y-76718187D01*
X95732499Y-76586908D01*
X95609083Y-76529359D01*
X95525072Y-76490184D01*
X95304000Y-76430947D01*
X95076000Y-76411000D01*
X94848000Y-76430947D01*
X94626928Y-76490184D01*
X94542917Y-76529359D01*
X94419501Y-76586908D01*
X94232016Y-76718187D01*
X94070187Y-76880016D01*
X93938908Y-77067501D01*
X93924133Y-77099187D01*
X93842184Y-77274928D01*
X93782947Y-77496000D01*
X93763000Y-77724000D01*
X91186500Y-77724000D01*
X91186500Y-73279000D01*
X91524000Y-73279000D01*
X91543947Y-73507000D01*
X91603184Y-73728072D01*
X91644819Y-73817358D01*
X91699908Y-73935499D01*
X91831187Y-74122984D01*
X91993016Y-74284813D01*
X91993019Y-74284815D01*
X91993020Y-74284816D01*
X92015705Y-74300700D01*
X92180501Y-74416092D01*
X92255999Y-74451297D01*
X92387928Y-74512816D01*
X92609000Y-74572053D01*
X92837000Y-74592000D01*
X93065000Y-74572053D01*
X93286072Y-74512816D01*
X93418001Y-74451297D01*
X93493499Y-74416092D01*
X93658295Y-74300700D01*
X93680980Y-74284816D01*
X93680981Y-74284815D01*
X93680984Y-74284813D01*
X93842813Y-74122984D01*
X93974092Y-73935499D01*
X94029181Y-73817358D01*
X94070816Y-73728072D01*
X94130053Y-73507000D01*
X94150000Y-73279000D01*
X94130053Y-73051000D01*
X94127262Y-73040582D01*
X94111178Y-72980558D01*
X94070816Y-72829928D01*
X94009297Y-72697999D01*
X93974092Y-72622501D01*
X93842813Y-72435016D01*
X93680984Y-72273187D01*
X93668030Y-72264116D01*
X93606146Y-72220785D01*
X93493499Y-72141908D01*
X93395163Y-72096054D01*
X93286072Y-72045184D01*
X93065000Y-71985947D01*
X92837000Y-71966000D01*
X92609000Y-71985947D01*
X92387928Y-72045184D01*
X92278837Y-72096054D01*
X92180501Y-72141908D01*
X92067854Y-72220785D01*
X92005971Y-72264116D01*
X91993016Y-72273187D01*
X91831187Y-72435016D01*
X91699908Y-72622501D01*
X91664703Y-72697999D01*
X91603184Y-72829928D01*
X91562822Y-72980558D01*
X91546739Y-73040582D01*
X91543947Y-73051000D01*
X91524000Y-73279000D01*
X91186500Y-73279000D01*
X91186500Y-70321884D01*
X93264241Y-70321884D01*
X93264241Y-70321887D01*
X93270487Y-70430210D01*
X93278186Y-70563726D01*
X93331442Y-70800042D01*
X93422580Y-71024487D01*
X93549151Y-71231033D01*
X93707758Y-71414134D01*
X93894139Y-71568871D01*
X94103291Y-71691089D01*
X94329595Y-71777506D01*
X94329598Y-71777507D01*
X94566975Y-71825803D01*
X94809052Y-71834678D01*
X94809056Y-71834678D01*
X95049335Y-71803898D01*
X95281361Y-71734287D01*
X95281364Y-71734286D01*
X95281366Y-71734285D01*
X95498900Y-71627716D01*
X95498902Y-71627715D01*
X95583030Y-71567707D01*
X95696114Y-71487045D01*
X95867706Y-71316051D01*
X96001505Y-71129851D01*
X96089150Y-71231031D01*
X96089151Y-71231033D01*
X96247758Y-71414134D01*
X96434139Y-71568871D01*
X96643291Y-71691089D01*
X96869595Y-71777506D01*
X96869598Y-71777507D01*
X97106975Y-71825803D01*
X97349052Y-71834678D01*
X97349056Y-71834678D01*
X97589335Y-71803898D01*
X97821361Y-71734287D01*
X97821364Y-71734286D01*
X97821366Y-71734285D01*
X98038900Y-71627717D01*
X98139143Y-71556213D01*
X98236116Y-71487043D01*
X98236118Y-71487041D01*
X98320032Y-71427185D01*
X98469101Y-71659145D01*
X98579451Y-71754763D01*
X98712274Y-71815420D01*
X98856797Y-71836200D01*
X99568000Y-71836200D01*
X99568000Y-68879800D01*
X100076000Y-68879800D01*
X100076000Y-70104000D01*
X101300200Y-70104000D01*
X101300200Y-70015898D01*
X101320202Y-69947777D01*
X101373858Y-69901284D01*
X101444132Y-69891180D01*
X101529413Y-69943627D01*
X101610187Y-70058984D01*
X101772016Y-70220813D01*
X101959501Y-70352092D01*
X102034999Y-70387297D01*
X102166928Y-70448816D01*
X102388000Y-70508053D01*
X102616000Y-70528000D01*
X102844000Y-70508053D01*
X103065072Y-70448816D01*
X103197001Y-70387297D01*
X103272499Y-70352092D01*
X103459984Y-70220813D01*
X103621813Y-70058984D01*
X103753092Y-69871499D01*
X103788297Y-69796001D01*
X103849816Y-69664072D01*
X103909053Y-69443000D01*
X103929000Y-69215000D01*
X108923000Y-69215000D01*
X108942947Y-69443000D01*
X109002184Y-69664072D01*
X109063703Y-69796001D01*
X109098908Y-69871499D01*
X109230187Y-70058984D01*
X109392016Y-70220813D01*
X109579501Y-70352092D01*
X109654999Y-70387297D01*
X109786928Y-70448816D01*
X110008000Y-70508053D01*
X110236000Y-70528000D01*
X110464000Y-70508053D01*
X110685072Y-70448816D01*
X110817001Y-70387297D01*
X110892499Y-70352092D01*
X111079984Y-70220813D01*
X111241813Y-70058984D01*
X111373092Y-69871499D01*
X111408297Y-69796001D01*
X111469816Y-69664072D01*
X111529053Y-69443000D01*
X111549000Y-69215000D01*
X111529053Y-68987000D01*
X111469816Y-68765928D01*
X111378368Y-68569816D01*
X111373092Y-68558501D01*
X111241813Y-68371016D01*
X111079984Y-68209187D01*
X110892499Y-68077908D01*
X110817001Y-68042703D01*
X110685072Y-67981184D01*
X110464000Y-67921947D01*
X110236000Y-67902000D01*
X110008000Y-67921947D01*
X109786928Y-67981184D01*
X109654999Y-68042703D01*
X109579501Y-68077908D01*
X109392016Y-68209187D01*
X109230187Y-68371016D01*
X109098908Y-68558501D01*
X109093632Y-68569816D01*
X109002184Y-68765928D01*
X108942947Y-68987000D01*
X108923000Y-69215000D01*
X103929000Y-69215000D01*
X103909053Y-68987000D01*
X103849816Y-68765928D01*
X103758368Y-68569816D01*
X103753092Y-68558501D01*
X103621813Y-68371016D01*
X103459984Y-68209187D01*
X103272499Y-68077908D01*
X103197001Y-68042703D01*
X103065072Y-67981184D01*
X102844000Y-67921947D01*
X102616000Y-67902000D01*
X102388000Y-67921947D01*
X102166928Y-67981184D01*
X102034999Y-68042703D01*
X101959501Y-68077908D01*
X101772016Y-68209187D01*
X101610187Y-68371016D01*
X101478908Y-68558501D01*
X101473632Y-68569816D01*
X101382184Y-68765928D01*
X101373640Y-68797816D01*
X101279859Y-69147802D01*
X101064549Y-68961237D01*
X100931726Y-68900580D01*
X100787203Y-68879800D01*
X100076000Y-68879800D01*
X99568000Y-68879800D01*
X98856798Y-68879800D01*
X98643695Y-68926158D01*
X98520855Y-69005101D01*
X98425237Y-69115451D01*
X98335232Y-69312533D01*
X98290132Y-69276915D01*
X98290130Y-69276913D01*
X98100023Y-69126776D01*
X98100024Y-69126776D01*
X98100022Y-69126775D01*
X97887951Y-69009705D01*
X97847278Y-68995302D01*
X97659600Y-68928842D01*
X97659598Y-68928842D01*
X97659596Y-68928841D01*
X97486832Y-68898067D01*
X97421111Y-68886360D01*
X97178886Y-68883401D01*
X97178882Y-68883401D01*
X96939430Y-68920043D01*
X96709171Y-68995302D01*
X96494303Y-69107156D01*
X96494302Y-69107157D01*
X96300584Y-69252605D01*
X96243316Y-69312533D01*
X96133223Y-69427739D01*
X96010875Y-69607092D01*
X95913165Y-69456085D01*
X95750131Y-69276913D01*
X95560022Y-69126775D01*
X95347951Y-69009705D01*
X95307278Y-68995302D01*
X95119600Y-68928842D01*
X95119598Y-68928842D01*
X95119596Y-68928841D01*
X94946832Y-68898067D01*
X94881111Y-68886360D01*
X94638886Y-68883401D01*
X94638882Y-68883401D01*
X94399430Y-68920043D01*
X94169171Y-68995302D01*
X93954303Y-69107156D01*
X93954302Y-69107157D01*
X93760584Y-69252605D01*
X93703316Y-69312533D01*
X93593221Y-69427741D01*
X93456715Y-69627851D01*
X93456713Y-69627854D01*
X93456713Y-69627855D01*
X93354720Y-69847580D01*
X93289983Y-70081013D01*
X93264241Y-70321884D01*
X91186500Y-70321884D01*
X91186500Y-64826835D01*
X91206502Y-64758714D01*
X91260158Y-64712221D01*
X91330432Y-64702117D01*
X91378335Y-64719403D01*
X91538361Y-64817468D01*
X91775828Y-64915831D01*
X92025759Y-64975834D01*
X92282000Y-64996000D01*
X92538241Y-64975834D01*
X92788172Y-64915831D01*
X93025634Y-64817470D01*
X93025636Y-64817469D01*
X93244792Y-64683170D01*
X93440241Y-64516241D01*
X93512190Y-64432000D01*
X93607167Y-64320796D01*
X93607168Y-64320794D01*
X93607170Y-64320792D01*
X93741469Y-64101636D01*
X93741778Y-64100891D01*
X93839831Y-63864172D01*
X93899834Y-63614241D01*
X93920000Y-63358000D01*
X93899834Y-63101759D01*
X93839831Y-62851828D01*
X93741470Y-62614366D01*
X93716119Y-62572997D01*
X94699000Y-62572997D01*
X94699000Y-64173002D01*
X94745358Y-64386105D01*
X94745359Y-64386108D01*
X94824300Y-64508944D01*
X94934651Y-64604563D01*
X95067471Y-64665220D01*
X95139735Y-64675610D01*
X95211997Y-64686000D01*
X96812002Y-64686000D01*
X97025105Y-64639642D01*
X97025106Y-64639641D01*
X97025108Y-64639641D01*
X97147944Y-64560700D01*
X97235112Y-64460102D01*
X97784109Y-64460102D01*
X97855501Y-64510092D01*
X98062930Y-64606816D01*
X98283996Y-64666052D01*
X98512000Y-64685999D01*
X98740004Y-64666052D01*
X98961070Y-64606816D01*
X99168499Y-64510092D01*
X99239891Y-64460102D01*
X98512000Y-63732210D01*
X97784109Y-64460102D01*
X97235112Y-64460102D01*
X97243563Y-64450349D01*
X97304220Y-64317529D01*
X97320334Y-64205455D01*
X98152790Y-63373000D01*
X98871210Y-63373000D01*
X99599102Y-64100891D01*
X99649092Y-64029499D01*
X99745816Y-63822070D01*
X99805052Y-63601004D01*
X99824999Y-63373000D01*
X99823687Y-63358000D01*
X100644000Y-63358000D01*
X100664166Y-63614241D01*
X100724169Y-63864172D01*
X100822222Y-64100891D01*
X100822531Y-64101636D01*
X100956830Y-64320792D01*
X100956832Y-64320794D01*
X100956833Y-64320796D01*
X101051810Y-64432000D01*
X101123759Y-64516241D01*
X101319208Y-64683170D01*
X101538364Y-64817469D01*
X101707481Y-64887520D01*
X101781413Y-64918144D01*
X101836693Y-64962693D01*
X101859114Y-65030056D01*
X101841556Y-65098847D01*
X101805466Y-65137765D01*
X101772020Y-65161184D01*
X101772018Y-65161186D01*
X101772015Y-65161188D01*
X101610187Y-65323016D01*
X101478908Y-65510501D01*
X101443703Y-65585999D01*
X101382184Y-65717928D01*
X101322947Y-65939000D01*
X101303000Y-66167000D01*
X101322947Y-66395000D01*
X101382184Y-66616072D01*
X101417284Y-66691344D01*
X101478908Y-66823499D01*
X101610187Y-67010984D01*
X101772016Y-67172813D01*
X101959501Y-67304092D01*
X102024078Y-67334204D01*
X102166928Y-67400816D01*
X102388000Y-67460053D01*
X102616000Y-67480000D01*
X102844000Y-67460053D01*
X103065072Y-67400816D01*
X103207922Y-67334204D01*
X103272499Y-67304092D01*
X103459984Y-67172813D01*
X103621813Y-67010984D01*
X103753092Y-66823499D01*
X103814716Y-66691344D01*
X103849816Y-66616072D01*
X103909053Y-66395000D01*
X103929000Y-66167000D01*
X103909053Y-65939000D01*
X103849816Y-65717928D01*
X103788297Y-65585999D01*
X103753092Y-65510501D01*
X103621813Y-65323016D01*
X103459984Y-65161187D01*
X103458857Y-65160398D01*
X103272500Y-65029909D01*
X103147972Y-64971841D01*
X103094687Y-64924924D01*
X103075226Y-64856647D01*
X103095768Y-64788687D01*
X103135386Y-64750214D01*
X103244792Y-64683170D01*
X103440241Y-64516241D01*
X103512190Y-64432000D01*
X103607167Y-64320796D01*
X103607168Y-64320794D01*
X103607170Y-64320792D01*
X103741469Y-64101636D01*
X103741778Y-64100891D01*
X103839831Y-63864172D01*
X103899834Y-63614241D01*
X103920000Y-63358000D01*
X103899834Y-63101759D01*
X103839831Y-62851828D01*
X103741470Y-62614366D01*
X103627555Y-62428474D01*
X103607170Y-62395208D01*
X103603670Y-62391109D01*
X103440241Y-62199759D01*
X103244796Y-62032833D01*
X103244794Y-62032832D01*
X103244792Y-62032830D01*
X103025636Y-61898531D01*
X102993414Y-61885184D01*
X102788172Y-61800169D01*
X102538241Y-61740166D01*
X102282000Y-61720000D01*
X102025759Y-61740166D01*
X101775828Y-61800169D01*
X101570586Y-61885184D01*
X101538364Y-61898531D01*
X101319208Y-62032830D01*
X101319206Y-62032832D01*
X101319204Y-62032833D01*
X101123759Y-62199759D01*
X100960331Y-62391109D01*
X100956830Y-62395208D01*
X100936445Y-62428474D01*
X100822530Y-62614366D01*
X100724169Y-62851828D01*
X100664166Y-63101759D01*
X100644000Y-63358000D01*
X99823687Y-63358000D01*
X99805052Y-63144996D01*
X99745816Y-62923930D01*
X99649092Y-62716501D01*
X99599102Y-62645109D01*
X98871210Y-63373000D01*
X98152790Y-63373000D01*
X97317274Y-62537485D01*
X97278642Y-62359895D01*
X97278641Y-62359894D01*
X97278641Y-62359892D01*
X97231089Y-62285898D01*
X97784109Y-62285898D01*
X98512000Y-63013790D01*
X99239891Y-62285898D01*
X99168499Y-62235908D01*
X98961070Y-62139184D01*
X98740004Y-62079948D01*
X98512000Y-62060001D01*
X98283996Y-62079948D01*
X98062930Y-62139184D01*
X97855501Y-62235908D01*
X97784109Y-62285898D01*
X97231089Y-62285898D01*
X97199700Y-62237056D01*
X97089349Y-62141437D01*
X96956529Y-62080780D01*
X96884265Y-62070390D01*
X96812003Y-62060000D01*
X95211998Y-62060000D01*
X94998895Y-62106358D01*
X94998894Y-62106359D01*
X94998892Y-62106359D01*
X94876056Y-62185300D01*
X94780437Y-62295651D01*
X94719780Y-62428471D01*
X94719780Y-62428474D01*
X94699000Y-62572997D01*
X93716119Y-62572997D01*
X93627555Y-62428474D01*
X93607170Y-62395208D01*
X93603670Y-62391109D01*
X93440241Y-62199759D01*
X93244796Y-62032833D01*
X93244794Y-62032832D01*
X93244792Y-62032830D01*
X93025636Y-61898531D01*
X92993414Y-61885184D01*
X92788172Y-61800169D01*
X92538241Y-61740166D01*
X92282000Y-61720000D01*
X92025759Y-61740166D01*
X91775828Y-61800169D01*
X91538361Y-61898532D01*
X91378335Y-61996597D01*
X91309802Y-62015136D01*
X91242125Y-61993680D01*
X91196792Y-61939041D01*
X91186500Y-61889165D01*
X91186500Y-60176544D01*
X107075686Y-60176544D01*
X107111975Y-60416494D01*
X107164002Y-60578538D01*
X107186162Y-60647559D01*
X107296337Y-60863791D01*
X107356945Y-60946601D01*
X107439666Y-61059626D01*
X107612461Y-61230025D01*
X107810274Y-61370603D01*
X107810277Y-61370604D01*
X107810279Y-61370606D01*
X108028028Y-61477752D01*
X108260105Y-61548705D01*
X108500542Y-61581641D01*
X108500543Y-61581641D01*
X108743148Y-61575713D01*
X108981693Y-61531070D01*
X109210027Y-61448864D01*
X109422281Y-61331210D01*
X109462919Y-61299231D01*
X109612996Y-61181133D01*
X109777259Y-61002497D01*
X109910851Y-60799895D01*
X110010333Y-60578539D01*
X110073145Y-60344124D01*
X110075087Y-60325000D01*
X112178138Y-60325000D01*
X112191975Y-60416494D01*
X112266161Y-60647557D01*
X112376339Y-60863793D01*
X112519666Y-61059626D01*
X112692461Y-61230025D01*
X112890274Y-61370603D01*
X113108032Y-61477753D01*
X113340104Y-61548705D01*
X113411000Y-61558416D01*
X113411000Y-60325000D01*
X113919000Y-60325000D01*
X113919000Y-61557774D01*
X114061693Y-61531070D01*
X114290027Y-61448864D01*
X114502282Y-61331209D01*
X114692996Y-61181133D01*
X114857259Y-61002497D01*
X114990851Y-60799895D01*
X115090333Y-60578539D01*
X115153144Y-60344125D01*
X115155087Y-60325000D01*
X113919000Y-60325000D01*
X113411000Y-60325000D01*
X112178138Y-60325000D01*
X110075087Y-60325000D01*
X110097668Y-60102685D01*
X110098000Y-60070999D01*
X110078537Y-59829101D01*
X110075565Y-59817000D01*
X112178415Y-59817000D01*
X113411000Y-59817000D01*
X113411000Y-58582201D01*
X113371119Y-58586815D01*
X113137615Y-58652890D01*
X112917666Y-58755455D01*
X112716950Y-58891861D01*
X112540618Y-59058609D01*
X112393222Y-59251395D01*
X112278542Y-59465272D01*
X112199534Y-59694731D01*
X112178415Y-59817000D01*
X110075565Y-59817000D01*
X110020650Y-59593425D01*
X109925824Y-59370028D01*
X109796508Y-59164678D01*
X109636018Y-58982638D01*
X109448494Y-58828604D01*
X109448493Y-58828603D01*
X109448490Y-58828601D01*
X109238746Y-58706527D01*
X109238742Y-58706525D01*
X109012184Y-58619558D01*
X108839000Y-58583378D01*
X108774629Y-58569930D01*
X108693818Y-58566261D01*
X108532199Y-58558922D01*
X108532197Y-58558922D01*
X108291123Y-58586815D01*
X108057610Y-58652892D01*
X107837666Y-58755454D01*
X107636948Y-58891862D01*
X107536998Y-58986380D01*
X107460618Y-59058609D01*
X107313222Y-59251395D01*
X107198542Y-59465272D01*
X107119533Y-59694732D01*
X107078227Y-59933870D01*
X107075686Y-60176544D01*
X91186500Y-60176544D01*
X91186500Y-58779572D01*
X91484184Y-58754051D01*
X91503353Y-58753834D01*
X91520829Y-58750910D01*
X91535262Y-58749672D01*
X91553538Y-58745436D01*
X91997359Y-58671165D01*
X92016462Y-58669410D01*
X92033652Y-58665092D01*
X92043210Y-58663492D01*
X92047933Y-58662702D01*
X92065807Y-58657015D01*
X92141958Y-58637887D01*
X98852241Y-58637887D01*
X98866186Y-58879727D01*
X98889378Y-58982638D01*
X98919442Y-59116042D01*
X99010580Y-59340487D01*
X99137151Y-59547033D01*
X99295758Y-59730134D01*
X99482139Y-59884871D01*
X99691291Y-60007089D01*
X99858658Y-60071000D01*
X99917598Y-60093507D01*
X100154975Y-60141803D01*
X100397052Y-60150678D01*
X100397056Y-60150678D01*
X100637335Y-60119898D01*
X100869361Y-60050287D01*
X100869364Y-60050286D01*
X100869366Y-60050285D01*
X101086900Y-59943716D01*
X101086902Y-59943715D01*
X101171030Y-59883707D01*
X101284114Y-59803045D01*
X101455706Y-59632051D01*
X101597065Y-59435329D01*
X101597066Y-59435327D01*
X101704395Y-59218165D01*
X101704396Y-59218162D01*
X101774816Y-58986380D01*
X101806435Y-58746210D01*
X101808200Y-58674000D01*
X101806498Y-58653293D01*
X101788352Y-58432576D01*
X101729337Y-58197627D01*
X101719217Y-58174353D01*
X101632743Y-57975475D01*
X101608907Y-57938629D01*
X101501163Y-57772083D01*
X101338131Y-57592913D01*
X101148022Y-57442775D01*
X100935951Y-57325705D01*
X100845557Y-57293695D01*
X100707600Y-57244842D01*
X100707598Y-57244842D01*
X100707596Y-57244841D01*
X100534832Y-57214067D01*
X100469111Y-57202360D01*
X100226886Y-57199401D01*
X100226882Y-57199401D01*
X99987430Y-57236043D01*
X99757171Y-57311302D01*
X99542303Y-57423156D01*
X99542302Y-57423157D01*
X99348584Y-57568605D01*
X99194866Y-57729462D01*
X99181221Y-57743741D01*
X99044715Y-57943851D01*
X99044713Y-57943854D01*
X99044713Y-57943855D01*
X98942720Y-58163580D01*
X98942719Y-58163584D01*
X98878672Y-58394529D01*
X98877983Y-58397013D01*
X98854200Y-58619558D01*
X98852241Y-58637887D01*
X92141958Y-58637887D01*
X92502256Y-58547386D01*
X92521142Y-58544107D01*
X92537918Y-58538429D01*
X92551981Y-58534896D01*
X92569352Y-58527789D01*
X92955726Y-58397008D01*
X92995572Y-58383521D01*
X93007422Y-58380466D01*
X93014150Y-58378733D01*
X93030424Y-58371724D01*
X93044148Y-58367079D01*
X93044150Y-58367078D01*
X93044153Y-58367077D01*
X93060891Y-58358603D01*
X93474184Y-58180611D01*
X93492308Y-58174353D01*
X93507968Y-58166062D01*
X93521274Y-58160331D01*
X93525920Y-58157489D01*
X93537294Y-58150534D01*
X93566954Y-58134830D01*
X93934966Y-57939977D01*
X93952531Y-57932285D01*
X93954158Y-57931248D01*
X93967475Y-57922764D01*
X93980283Y-57915983D01*
X93980285Y-57915982D01*
X93995459Y-57904936D01*
X94118019Y-57826857D01*
X94374968Y-57663163D01*
X94391865Y-57654084D01*
X94391867Y-57654083D01*
X94405995Y-57643399D01*
X94418211Y-57635615D01*
X94432448Y-57623391D01*
X94791363Y-57351945D01*
X94807468Y-57341547D01*
X94820691Y-57329766D01*
X94832254Y-57321020D01*
X94845469Y-57307689D01*
X94873057Y-57283109D01*
X95181446Y-57008345D01*
X95196668Y-56996686D01*
X95208905Y-56983880D01*
X95219729Y-56974236D01*
X95231831Y-56959891D01*
X95542723Y-56634561D01*
X95556958Y-56621721D01*
X95568129Y-56607975D01*
X95578142Y-56597497D01*
X95589053Y-56582228D01*
X95872860Y-56233005D01*
X95886012Y-56219072D01*
X95886013Y-56219071D01*
X95896042Y-56204479D01*
X95905187Y-56193226D01*
X95914849Y-56177115D01*
X96093345Y-55917403D01*
X96148414Y-55872592D01*
X96218967Y-55864667D01*
X96282604Y-55896144D01*
X96319121Y-55957029D01*
X96322472Y-56002155D01*
X96312241Y-56097884D01*
X96321111Y-56251709D01*
X96326186Y-56339727D01*
X96379442Y-56576042D01*
X96468290Y-56794847D01*
X96470580Y-56800487D01*
X96597151Y-57007033D01*
X96628376Y-57043080D01*
X96755759Y-57190135D01*
X96923939Y-57329761D01*
X96942139Y-57344871D01*
X97151291Y-57467089D01*
X97377595Y-57553506D01*
X97377598Y-57553507D01*
X97614975Y-57601803D01*
X97857052Y-57610678D01*
X97857056Y-57610678D01*
X98097335Y-57579898D01*
X98329361Y-57510287D01*
X98329364Y-57510286D01*
X98329366Y-57510285D01*
X98546900Y-57403716D01*
X98546902Y-57403715D01*
X98681525Y-57307689D01*
X98744114Y-57263045D01*
X98915706Y-57092051D01*
X98950898Y-57043076D01*
X99057065Y-56895329D01*
X99057186Y-56895085D01*
X99164395Y-56678165D01*
X99185720Y-56607975D01*
X99234816Y-56446380D01*
X99242502Y-56387999D01*
X101417065Y-56387999D01*
X101459441Y-56576041D01*
X101550578Y-56800483D01*
X101677152Y-57007034D01*
X101835759Y-57190135D01*
X102022139Y-57344871D01*
X102231290Y-57467088D01*
X102457594Y-57553505D01*
X102616000Y-57585733D01*
X102616001Y-56388000D01*
X101417065Y-56387999D01*
X99242502Y-56387999D01*
X99266435Y-56206210D01*
X99268200Y-56134000D01*
X99257361Y-56002160D01*
X99248352Y-55892576D01*
X99245194Y-55880000D01*
X101415526Y-55880000D01*
X102616000Y-55880001D01*
X102616001Y-54682490D01*
X102527430Y-54696043D01*
X102297171Y-54771302D01*
X102082303Y-54883156D01*
X101888585Y-55028605D01*
X101721221Y-55203741D01*
X101584715Y-55403851D01*
X101482719Y-55623584D01*
X101417983Y-55857012D01*
X101415526Y-55880000D01*
X99245194Y-55880000D01*
X99189337Y-55657627D01*
X99162005Y-55594768D01*
X99092743Y-55435475D01*
X99066239Y-55394505D01*
X98961163Y-55232083D01*
X98798131Y-55052913D01*
X98608022Y-54902775D01*
X98395951Y-54785705D01*
X98359632Y-54772844D01*
X98167600Y-54704842D01*
X98167598Y-54704842D01*
X98167596Y-54704841D01*
X97994832Y-54674067D01*
X97929111Y-54662360D01*
X97686886Y-54659401D01*
X97686882Y-54659401D01*
X97447430Y-54696043D01*
X97217171Y-54771302D01*
X97002303Y-54883156D01*
X96874431Y-54979165D01*
X96807946Y-55004071D01*
X96738551Y-54989079D01*
X96688277Y-54938948D01*
X96678380Y-54841252D01*
X96683667Y-54824120D01*
X96697685Y-54787024D01*
X96822215Y-54457464D01*
X96842730Y-54403174D01*
X96850815Y-54385797D01*
X96855727Y-54368777D01*
X96860851Y-54355220D01*
X96864930Y-54336896D01*
X96989721Y-53904545D01*
X96996385Y-53886581D01*
X96999915Y-53869227D01*
X97003936Y-53855297D01*
X97006533Y-53836701D01*
X97096248Y-53395740D01*
X97101449Y-53377298D01*
X97101853Y-53373957D01*
X97103577Y-53359715D01*
X97106466Y-53345515D01*
X97106467Y-53345511D01*
X97107564Y-53326767D01*
X97161625Y-52880039D01*
X97165332Y-52861231D01*
X97166043Y-52843532D01*
X97167378Y-52832500D01*
X103830291Y-52832500D01*
X103804800Y-53009802D01*
G37*
%TD.AperFunction*%
%TD*%
M02*
