%TF.GenerationSoftware,KiCad,Pcbnew,(5.99.0-3499-gca2252686-dirty)*%
%TF.CreationDate,2020-09-23T10:08:40+03:00*%
%TF.ProjectId,omega,6f6d6567-612e-46b6-9963-61645f706362,rev?*%
%TF.SameCoordinates,Original*%
%TF.FileFunction,Copper,L1,Top*%
%TF.FilePolarity,Positive*%
%FSLAX46Y46*%
G04 Gerber Fmt 4.6, Leading zero omitted, Abs format (unit mm)*
G04 Created by KiCad (PCBNEW (5.99.0-3499-gca2252686-dirty)) date 2020-09-23 10:08:40*
%MOMM*%
%LPD*%
G01*
G04 APERTURE LIST*
%TA.AperFunction,ComponentPad*%
%ADD10O,1.600000X1.600000*%
%TD*%
%TA.AperFunction,ComponentPad*%
%ADD11C,1.600000*%
%TD*%
%TA.AperFunction,ComponentPad*%
%ADD12C,1.800000*%
%TD*%
%TA.AperFunction,ComponentPad*%
%ADD13R,1.800000X1.800000*%
%TD*%
%TA.AperFunction,ComponentPad*%
%ADD14R,1.600000X1.600000*%
%TD*%
%TA.AperFunction,ComponentPad*%
%ADD15O,1.930400X1.930400*%
%TD*%
%TA.AperFunction,ComponentPad*%
%ADD16R,1.930400X1.930400*%
%TD*%
%TA.AperFunction,ComponentPad*%
%ADD17O,2.250000X2.250000*%
%TD*%
%TA.AperFunction,SMDPad,CuDef*%
%ADD18R,0.800000X0.900000*%
%TD*%
%TA.AperFunction,ComponentPad*%
%ADD19R,2.200000X2.200000*%
%TD*%
%TA.AperFunction,ComponentPad*%
%ADD20O,2.200000X2.200000*%
%TD*%
%TA.AperFunction,ComponentPad*%
%ADD21O,2.000000X2.000000*%
%TD*%
%TA.AperFunction,Conductor*%
%ADD22C,0.400000*%
%TD*%
G04 APERTURE END LIST*
D10*
%TO.P,R7,2*%
%TO.N,Net-(D2-Pad1)*%
X110246117Y-72324058D03*
D11*
%TO.P,R7,1*%
%TO.N,LED-*%
X102626117Y-72324058D03*
%TD*%
D12*
%TO.P,D2,2,A*%
%TO.N,+9V*%
X105156000Y-75184000D03*
D13*
%TO.P,D2,1,K*%
%TO.N,Net-(D2-Pad1)*%
X107696000Y-75184000D03*
%TD*%
D11*
%TO.P,C3,2*%
%TO.N,GND*%
X117689000Y-63119000D03*
D14*
%TO.P,C3,1*%
%TO.N,VCC*%
X115189000Y-63119000D03*
%TD*%
D15*
%TO.P,Q2,3,S*%
%TO.N,Net-(Q2-Pad3)*%
X113665000Y-73025000D03*
%TO.P,Q2,2,G*%
%TO.N,Net-(Q2-Pad2)*%
X113665000Y-75565000D03*
D16*
%TO.P,Q2,1,D*%
%TO.N,VCC*%
X113665000Y-78105000D03*
%TD*%
D17*
%TO.P,RV3,*%
%TO.N,*%
X120697000Y-63358000D03*
X110697000Y-63358000D03*
D15*
%TO.P,RV3,3,3*%
%TO.N,Net-(Q2-Pad3)*%
X113157000Y-70358000D03*
%TO.P,RV3,2,2*%
%TO.N,Net-(C7-Pad1)*%
X115697000Y-70358000D03*
D16*
%TO.P,RV3,1,1*%
%TO.N,GND*%
X118237000Y-70358000D03*
%TD*%
D17*
%TO.P,RV1,*%
%TO.N,*%
X102282000Y-63358000D03*
X92282000Y-63358000D03*
D15*
%TO.P,RV1,3,3*%
%TO.N,Net-(R2-Pad2)*%
X94742000Y-70358000D03*
%TO.P,RV1,2,2*%
X97282000Y-70358000D03*
D16*
%TO.P,RV1,1,1*%
%TO.N,GND*%
X99822000Y-70358000D03*
%TD*%
D11*
%TO.P,R5,1*%
%TO.N,Net-(Q2-Pad2)*%
X112649000Y-67564000D03*
D10*
%TO.P,R5,2*%
%TO.N,VCC*%
X120269000Y-67564000D03*
%TD*%
D11*
%TO.P,R2,1*%
%TO.N,Net-(C1-Pad2)*%
X100457000Y-73279000D03*
D10*
%TO.P,R2,2*%
%TO.N,Net-(R2-Pad2)*%
X92837000Y-73279000D03*
%TD*%
D18*
%TO.P,Q1,1,D*%
%TO.N,Net-(C6-Pad1)*%
X104714000Y-62722000D03*
%TO.P,Q1,2,S*%
%TO.N,Net-(Q1-Pad2)*%
X106614000Y-62722000D03*
%TO.P,Q1,3,G*%
%TO.N,Net-(C2-Pad1)*%
X105664000Y-60722000D03*
%TD*%
D11*
%TO.P,R3,1*%
%TO.N,Net-(C1-Pad2)*%
X102616000Y-69215000D03*
D10*
%TO.P,R3,2*%
%TO.N,Net-(C2-Pad1)*%
X110236000Y-69215000D03*
%TD*%
D19*
%TO.P,D1,1,K*%
%TO.N,VCC*%
X115697000Y-57150000D03*
D20*
%TO.P,D1,2,A*%
%TO.N,+9V*%
X105537000Y-57150000D03*
%TD*%
D14*
%TO.P,C6,1*%
%TO.N,Net-(C6-Pad1)*%
X96012000Y-63373000D03*
D11*
%TO.P,C6,2*%
%TO.N,GND*%
X98512000Y-63373000D03*
%TD*%
%TO.P,R4,1*%
%TO.N,Net-(Q2-Pad2)*%
X110236000Y-66167000D03*
D10*
%TO.P,R4,2*%
%TO.N,Net-(Q1-Pad2)*%
X102616000Y-66167000D03*
%TD*%
D16*
%TO.P,J3,1,Pin_1*%
%TO.N,+9V*%
X95377000Y-82042000D03*
D15*
%TO.P,J3,2,Pin_2*%
%TO.N,GND*%
X97917000Y-82042000D03*
%TD*%
D16*
%TO.P,J1,1,Pin_1*%
%TO.N,IN*%
X102616000Y-82042000D03*
D15*
%TO.P,J1,2,Pin_2*%
%TO.N,GND*%
X105156000Y-82042000D03*
%TO.P,J1,3,Pin_3*%
%TO.N,LED-*%
X107696000Y-82042000D03*
%TO.P,J1,4,Pin_4*%
%TO.N,OUT*%
X110236000Y-82042000D03*
%TD*%
D21*
%TO.P,C2,1*%
%TO.N,Net-(C2-Pad1)*%
X108585000Y-60071000D03*
%TO.P,C2,2*%
%TO.N,GND*%
X113665000Y-60071000D03*
%TD*%
D11*
%TO.P,C1,1*%
%TO.N,IN*%
X100076000Y-77724000D03*
%TO.P,C1,2*%
%TO.N,Net-(C1-Pad2)*%
X95076000Y-77724000D03*
%TD*%
D16*
%TO.P,J2,1,Pin_1*%
%TO.N,+9V*%
X105283000Y-53975000D03*
D15*
%TO.P,J2,2,Pin_2*%
%TO.N,GND*%
X107823000Y-53975000D03*
%TD*%
D14*
%TO.P,C7,1*%
%TO.N,Net-(C7-Pad1)*%
X117475000Y-76708000D03*
D11*
%TO.P,C7,2*%
%TO.N,OUT*%
X119975000Y-76708000D03*
%TD*%
D15*
%TO.P,RV2,1,1*%
%TO.N,GND*%
X102870000Y-56134000D03*
%TO.P,RV2,2,2*%
%TO.N,Net-(C6-Pad1)*%
X100330000Y-58674000D03*
%TO.P,RV2,3,3*%
X97790000Y-56134000D03*
%TD*%
D11*
%TO.P,R1,1*%
%TO.N,IN*%
X102616000Y-78105000D03*
D10*
%TO.P,R1,2*%
%TO.N,GND*%
X110236000Y-78105000D03*
%TD*%
D11*
%TO.P,R6,1*%
%TO.N,OUT*%
X112776000Y-82042000D03*
D10*
%TO.P,R6,2*%
%TO.N,GND*%
X120396000Y-82042000D03*
%TD*%
D22*
%TO.N,Net-(C1-Pad2)*%
X100457000Y-73279000D02*
X100457000Y-72717173D01*
X102616000Y-70558173D02*
X102616000Y-69215000D01*
X100457000Y-72717173D02*
X102616000Y-70558173D01*
%TO.N,Net-(C2-Pad1)*%
X108585000Y-60071000D02*
X106315000Y-60071000D01*
X106315000Y-60071000D02*
X105664000Y-60722000D01*
%TO.N,VCC*%
X115697000Y-57150000D02*
X115697000Y-62611000D01*
X115697000Y-62611000D02*
X115189000Y-63119000D01*
%TO.N,+9V*%
X105537000Y-57150000D02*
X105537000Y-54229000D01*
X105537000Y-54229000D02*
X105283000Y-53975000D01*
X97928502Y-53975000D02*
X105283000Y-53975000D01*
X93345000Y-64552002D02*
X94811999Y-63085003D01*
X96424799Y-56483201D02*
X96424799Y-55478703D01*
X96424799Y-55478703D02*
X97928502Y-53975000D01*
X94811999Y-63085003D02*
X94811999Y-58096001D01*
X91636999Y-69653001D02*
X93345000Y-67945000D01*
X94811999Y-58096001D02*
X96424799Y-56483201D01*
X95377000Y-82042000D02*
X91636999Y-78301999D01*
X93345000Y-67945000D02*
X93345000Y-64552002D01*
X91636999Y-78301999D02*
X91636999Y-69653001D01*
X95377000Y-80646998D02*
X100839998Y-75184000D01*
X95377000Y-82042000D02*
X95377000Y-80646998D01*
X100839998Y-75184000D02*
X105156000Y-75184000D01*
%TO.N,Net-(C6-Pad1)*%
X104714000Y-62722000D02*
X100666000Y-58674000D01*
X100666000Y-58674000D02*
X100330000Y-58674000D01*
%TO.N,Net-(Q1-Pad2)*%
X102616000Y-66167000D02*
X103169000Y-66167000D01*
X103169000Y-66167000D02*
X106614000Y-62722000D01*
%TO.N,Net-(D2-Pad1)*%
X107696000Y-75184000D02*
X107696000Y-74874175D01*
X107696000Y-74874175D02*
X110246117Y-72324058D01*
%TO.N,Net-(Q2-Pad2)*%
X110236000Y-66167000D02*
X111252000Y-66167000D01*
X111252000Y-66167000D02*
X112649000Y-67564000D01*
%TO.N,Net-(C2-Pad1)*%
X108585000Y-66675000D02*
X108585000Y-60071000D01*
X108585000Y-68072000D02*
X108585000Y-66675000D01*
X110236000Y-69723000D02*
X108585000Y-68072000D01*
%TO.N,Net-(Q2-Pad2)*%
X113665000Y-75565000D02*
X112522000Y-74422000D01*
X112649000Y-67564000D02*
X111791799Y-68421201D01*
X111791799Y-68421201D02*
X111791799Y-73691799D01*
X111791799Y-73691799D02*
X112522000Y-74422000D01*
%TO.N,Net-(C1-Pad2)*%
X95076000Y-77724000D02*
X99521000Y-73279000D01*
X99521000Y-73279000D02*
X100457000Y-73279000D01*
%TO.N,Net-(R2-Pad2)*%
X92837000Y-73279000D02*
X92837000Y-72263000D01*
X92837000Y-72263000D02*
X94742000Y-70358000D01*
%TO.N,OUT*%
X110236000Y-82042000D02*
X112776000Y-82042000D01*
%TO.N,VCC*%
X115189000Y-63119000D02*
X119634000Y-67564000D01*
X119634000Y-67564000D02*
X120269000Y-67564000D01*
X115189000Y-57277000D02*
X115443000Y-57023000D01*
%TO.N,IN*%
X102616000Y-78105000D02*
X100457000Y-78105000D01*
X100457000Y-78105000D02*
X100076000Y-77724000D01*
X102616000Y-82042000D02*
X102616000Y-78105000D01*
%TO.N,Net-(Q2-Pad3)*%
X113665000Y-73025000D02*
X113665000Y-70866000D01*
X113665000Y-70866000D02*
X113157000Y-70358000D01*
%TO.N,OUT*%
X112776000Y-82042000D02*
X114461002Y-82042000D01*
X119795002Y-76708000D02*
X119975000Y-76708000D01*
X114461002Y-82042000D02*
X119795002Y-76708000D01*
%TO.N,Net-(C7-Pad1)*%
X115697000Y-70358000D02*
X115697000Y-74930000D01*
X115697000Y-74930000D02*
X117475000Y-76708000D01*
%TO.N,Net-(R2-Pad2)*%
X94742000Y-70358000D02*
X97282000Y-70358000D01*
%TO.N,Net-(C6-Pad1)*%
X100330000Y-58674000D02*
X96012000Y-62992000D01*
X96012000Y-62992000D02*
X96012000Y-63373000D01*
X97790000Y-56134000D02*
X100330000Y-58674000D01*
%TD*%
%TA.AperFunction,Conductor*%
%TO.N,GND*%
G36*
X115737656Y-53009802D02*
G01*
X115761718Y-53234710D01*
X115762340Y-53253875D01*
X115765630Y-53271280D01*
X115766788Y-53282095D01*
X115767173Y-53285690D01*
X115771795Y-53303881D01*
X115855416Y-53746137D01*
X115857572Y-53765187D01*
X115862249Y-53782274D01*
X115864941Y-53796513D01*
X115871007Y-53814275D01*
X115915270Y-53975997D01*
X115989824Y-54248389D01*
X115992098Y-54260023D01*
X115993503Y-54267215D01*
X115999537Y-54283877D01*
X116000496Y-54287378D01*
X116003362Y-54297851D01*
X116010828Y-54315058D01*
X116143326Y-54680938D01*
X116164087Y-54738267D01*
X116169260Y-54756724D01*
X116176608Y-54772843D01*
X116181543Y-54786470D01*
X116190371Y-54803034D01*
X116373042Y-55203741D01*
X116377067Y-55212571D01*
X116383705Y-55230558D01*
X116383707Y-55230561D01*
X116383707Y-55230562D01*
X116392324Y-55246039D01*
X116398337Y-55259229D01*
X116408459Y-55275021D01*
X116554318Y-55537000D01*
X114596998Y-55537000D01*
X114383895Y-55583358D01*
X114383894Y-55583359D01*
X114383892Y-55583359D01*
X114261056Y-55662300D01*
X114261055Y-55662301D01*
X114225830Y-55702953D01*
X114165437Y-55772651D01*
X114104780Y-55905471D01*
X114104780Y-55905474D01*
X114084000Y-56049997D01*
X114084000Y-58250002D01*
X114167831Y-58635361D01*
X113919000Y-58583378D01*
X113919000Y-61557774D01*
X114061693Y-61531070D01*
X114290027Y-61448864D01*
X114502282Y-61331209D01*
X114692996Y-61181133D01*
X114769753Y-61097660D01*
X114830586Y-61061055D01*
X114901551Y-61063150D01*
X114960119Y-61103279D01*
X114988501Y-61182945D01*
X114988501Y-61806000D01*
X114388998Y-61806000D01*
X114175895Y-61852358D01*
X114175894Y-61852359D01*
X114175892Y-61852359D01*
X114053056Y-61931300D01*
X114053055Y-61931301D01*
X113981498Y-62013883D01*
X113957437Y-62041651D01*
X113896780Y-62174471D01*
X113896780Y-62174474D01*
X113876000Y-62318997D01*
X113876000Y-63919002D01*
X113915730Y-64101636D01*
X113922359Y-64132108D01*
X114001300Y-64254944D01*
X114111651Y-64350563D01*
X114244471Y-64411220D01*
X114316736Y-64421610D01*
X114388997Y-64432000D01*
X115500031Y-64432000D01*
X119018376Y-67950346D01*
X119035184Y-68013072D01*
X119131909Y-68220500D01*
X119259390Y-68402561D01*
X119263187Y-68407984D01*
X119425016Y-68569813D01*
X119612501Y-68701092D01*
X119687999Y-68736297D01*
X119819928Y-68797816D01*
X120041000Y-68857053D01*
X120269000Y-68877000D01*
X120497000Y-68857053D01*
X120718072Y-68797816D01*
X120850001Y-68736297D01*
X120925499Y-68701092D01*
X121112984Y-68569813D01*
X121274813Y-68407984D01*
X121406092Y-68220499D01*
X121441297Y-68145001D01*
X121502816Y-68013072D01*
X121536056Y-67889021D01*
X121544795Y-67856409D01*
X121581747Y-67795786D01*
X121645607Y-67764765D01*
X121716102Y-67773195D01*
X121770848Y-67818398D01*
X121792501Y-67889020D01*
X121792500Y-74636531D01*
X121792500Y-81373456D01*
X121772498Y-81441577D01*
X121718842Y-81488070D01*
X121648568Y-81498174D01*
X121583988Y-81468680D01*
X121552305Y-81426705D01*
X121533091Y-81385501D01*
X121401813Y-81198016D01*
X121239984Y-81036187D01*
X121052499Y-80904908D01*
X120845076Y-80808186D01*
X120650000Y-80755915D01*
X120650000Y-82296000D01*
X119109915Y-82296000D01*
X119162186Y-82491076D01*
X119258908Y-82698499D01*
X119390187Y-82885984D01*
X119473608Y-82969405D01*
X119507634Y-83031717D01*
X119502569Y-83102532D01*
X119460022Y-83159368D01*
X119384513Y-83184500D01*
X113787487Y-83184500D01*
X113719366Y-83164498D01*
X113672873Y-83110842D01*
X113662769Y-83040568D01*
X113698392Y-82969405D01*
X113781813Y-82885984D01*
X113876681Y-82750500D01*
X114439351Y-82750500D01*
X114478679Y-82753181D01*
X114498342Y-82754522D01*
X114498343Y-82754522D01*
X114541296Y-82747025D01*
X114564511Y-82742974D01*
X114604624Y-82738120D01*
X114631199Y-82734904D01*
X114648747Y-82728273D01*
X114667224Y-82725048D01*
X114728728Y-82698050D01*
X114791564Y-82674306D01*
X114807026Y-82663679D01*
X114824203Y-82656139D01*
X114877485Y-82615254D01*
X114932848Y-82577204D01*
X114974368Y-82530603D01*
X115716971Y-81788000D01*
X119109915Y-81788000D01*
X120142000Y-81788000D01*
X120142000Y-80755915D01*
X119946924Y-80808186D01*
X119739501Y-80904908D01*
X119552016Y-81036187D01*
X119390187Y-81198016D01*
X119258908Y-81385501D01*
X119162186Y-81592924D01*
X119109915Y-81788000D01*
X115716971Y-81788000D01*
X119555289Y-77949683D01*
X119746995Y-78001052D01*
X119746997Y-78001052D01*
X119747000Y-78001053D01*
X119975000Y-78021000D01*
X120203000Y-78001053D01*
X120424072Y-77941816D01*
X120563079Y-77876996D01*
X120631499Y-77845092D01*
X120818984Y-77713813D01*
X120980813Y-77551984D01*
X121112092Y-77364499D01*
X121153858Y-77274930D01*
X121208816Y-77157072D01*
X121268053Y-76936000D01*
X121288000Y-76708000D01*
X121268053Y-76480000D01*
X121208816Y-76258928D01*
X121138979Y-76109162D01*
X121112092Y-76051501D01*
X120980813Y-75864016D01*
X120818984Y-75702187D01*
X120631499Y-75570908D01*
X120541377Y-75528884D01*
X120424072Y-75474184D01*
X120203000Y-75414947D01*
X119975000Y-75395000D01*
X119747000Y-75414947D01*
X119525928Y-75474184D01*
X119408623Y-75528884D01*
X119318501Y-75570908D01*
X119131016Y-75702187D01*
X118975680Y-75857523D01*
X118913368Y-75891549D01*
X118842553Y-75886484D01*
X118785717Y-75843937D01*
X118763465Y-75795212D01*
X118741642Y-75694895D01*
X118741641Y-75694894D01*
X118741641Y-75694892D01*
X118662700Y-75572056D01*
X118612877Y-75528884D01*
X118552349Y-75476437D01*
X118547416Y-75474184D01*
X118419529Y-75415780D01*
X118347265Y-75405390D01*
X118275003Y-75395000D01*
X117163970Y-75395000D01*
X116405500Y-74636531D01*
X116405500Y-71662240D01*
X116491987Y-71600549D01*
X116651116Y-71487043D01*
X116651119Y-71487040D01*
X116735032Y-71427185D01*
X116884101Y-71659145D01*
X116994451Y-71754763D01*
X117127274Y-71815420D01*
X117271797Y-71836200D01*
X117983000Y-71836200D01*
X117983000Y-70612000D01*
X118491000Y-70612000D01*
X118491000Y-71836200D01*
X119202202Y-71836200D01*
X119415305Y-71789842D01*
X119538145Y-71710899D01*
X119633763Y-71600549D01*
X119694420Y-71467726D01*
X119715200Y-71323203D01*
X119715200Y-70612000D01*
X118491000Y-70612000D01*
X117983000Y-70612000D01*
X117983000Y-68879800D01*
X118491000Y-68879800D01*
X118491000Y-70104000D01*
X119715200Y-70104000D01*
X119715200Y-69392798D01*
X119668842Y-69179695D01*
X119589899Y-69056855D01*
X119479549Y-68961237D01*
X119346726Y-68900580D01*
X119202203Y-68879800D01*
X118491000Y-68879800D01*
X117983000Y-68879800D01*
X117271798Y-68879800D01*
X117058695Y-68926158D01*
X116935855Y-69005101D01*
X116840237Y-69115451D01*
X116750232Y-69312533D01*
X116705132Y-69276915D01*
X116705130Y-69276913D01*
X116515023Y-69126776D01*
X116515024Y-69126776D01*
X116515022Y-69126775D01*
X116302951Y-69009705D01*
X116262278Y-68995302D01*
X116074600Y-68928842D01*
X116074598Y-68928842D01*
X116074596Y-68928841D01*
X115901832Y-68898067D01*
X115836111Y-68886360D01*
X115593886Y-68883401D01*
X115593882Y-68883401D01*
X115354430Y-68920043D01*
X115124171Y-68995302D01*
X114909303Y-69107156D01*
X114909302Y-69107157D01*
X114715584Y-69252605D01*
X114658316Y-69312533D01*
X114548223Y-69427739D01*
X114425875Y-69607092D01*
X114328165Y-69456085D01*
X114165131Y-69276913D01*
X113975022Y-69126775D01*
X113762951Y-69009705D01*
X113722278Y-68995302D01*
X113534600Y-68928842D01*
X113534598Y-68928842D01*
X113534596Y-68928841D01*
X113391403Y-68903334D01*
X113327845Y-68871696D01*
X113291482Y-68810719D01*
X113293859Y-68739762D01*
X113341228Y-68676074D01*
X113492984Y-68569813D01*
X113654813Y-68407984D01*
X113786092Y-68220499D01*
X113821297Y-68145001D01*
X113882816Y-68013072D01*
X113942053Y-67792000D01*
X113962000Y-67564000D01*
X113942053Y-67336000D01*
X113941572Y-67334203D01*
X113911280Y-67221157D01*
X113882816Y-67114928D01*
X113821297Y-66982999D01*
X113786092Y-66907501D01*
X113654813Y-66720016D01*
X113492984Y-66558187D01*
X113305499Y-66426908D01*
X113230001Y-66391703D01*
X113098072Y-66330184D01*
X112877000Y-66270947D01*
X112649000Y-66251000D01*
X112421000Y-66270947D01*
X112420999Y-66270947D01*
X112362992Y-66276022D01*
X111768309Y-65681340D01*
X111729425Y-65636766D01*
X111674459Y-65598135D01*
X111621612Y-65556699D01*
X111621613Y-65556699D01*
X111621611Y-65556698D01*
X111604518Y-65548980D01*
X111599956Y-65545774D01*
X111589166Y-65538190D01*
X111567009Y-65529552D01*
X111526571Y-65513786D01*
X111519293Y-65510500D01*
X111465368Y-65486151D01*
X111465367Y-65486151D01*
X111465365Y-65486150D01*
X111446922Y-65482732D01*
X111429440Y-65475916D01*
X111362827Y-65467146D01*
X111339738Y-65462867D01*
X111241816Y-65323020D01*
X111241815Y-65323018D01*
X111079985Y-65161188D01*
X111079982Y-65161186D01*
X111079980Y-65161184D01*
X111079624Y-65160935D01*
X111079195Y-65160398D01*
X111072186Y-65153389D01*
X111072968Y-65152607D01*
X111035296Y-65105479D01*
X111027986Y-65034860D01*
X111060017Y-64971499D01*
X111122481Y-64935203D01*
X111203172Y-64915831D01*
X111440634Y-64817470D01*
X111440636Y-64817469D01*
X111659792Y-64683170D01*
X111855241Y-64516241D01*
X111911518Y-64450349D01*
X112022167Y-64320796D01*
X112022168Y-64320794D01*
X112022170Y-64320792D01*
X112156469Y-64101636D01*
X112156778Y-64100891D01*
X112254831Y-63864172D01*
X112314834Y-63614241D01*
X112335000Y-63358000D01*
X112314834Y-63101759D01*
X112254831Y-62851828D01*
X112156470Y-62614366D01*
X112063407Y-62462501D01*
X112022170Y-62395208D01*
X112018670Y-62391109D01*
X111855241Y-62199759D01*
X111659796Y-62032833D01*
X111659794Y-62032832D01*
X111659792Y-62032830D01*
X111440636Y-61898531D01*
X111440634Y-61898530D01*
X111203172Y-61800169D01*
X110953241Y-61740166D01*
X110697000Y-61720000D01*
X110440759Y-61740166D01*
X110190828Y-61800169D01*
X109953366Y-61898530D01*
X109953364Y-61898531D01*
X109734208Y-62032830D01*
X109734206Y-62032832D01*
X109734204Y-62032833D01*
X109538762Y-62199756D01*
X109515311Y-62227213D01*
X109455860Y-62266022D01*
X109384865Y-62266528D01*
X109324867Y-62228572D01*
X109293500Y-62145382D01*
X109293500Y-61402595D01*
X109361589Y-61364852D01*
X109422281Y-61331210D01*
X109489281Y-61278486D01*
X109612996Y-61181133D01*
X109777259Y-61002497D01*
X109910851Y-60799895D01*
X110010333Y-60578539D01*
X110073145Y-60344124D01*
X110075087Y-60325000D01*
X112178138Y-60325000D01*
X112191975Y-60416494D01*
X112266161Y-60647557D01*
X112376339Y-60863793D01*
X112519666Y-61059626D01*
X112692461Y-61230025D01*
X112890274Y-61370603D01*
X113108032Y-61477753D01*
X113340104Y-61548705D01*
X113411000Y-61558416D01*
X113411000Y-60325000D01*
X112178138Y-60325000D01*
X110075087Y-60325000D01*
X110097668Y-60102685D01*
X110098000Y-60070999D01*
X110078537Y-59829101D01*
X110075566Y-59817000D01*
X112178415Y-59817000D01*
X113411000Y-59817000D01*
X113411000Y-58582201D01*
X113371119Y-58586815D01*
X113137615Y-58652890D01*
X112917666Y-58755455D01*
X112716950Y-58891861D01*
X112540618Y-59058609D01*
X112393222Y-59251395D01*
X112278542Y-59465272D01*
X112199534Y-59694731D01*
X112178415Y-59817000D01*
X110075566Y-59817000D01*
X110072706Y-59805359D01*
X110045533Y-59694731D01*
X110020650Y-59593425D01*
X109925824Y-59370028D01*
X109796508Y-59164678D01*
X109636018Y-58982638D01*
X109448494Y-58828604D01*
X109448493Y-58828603D01*
X109448490Y-58828601D01*
X109238746Y-58706527D01*
X109238742Y-58706525D01*
X109012184Y-58619558D01*
X108839000Y-58583378D01*
X108774629Y-58569930D01*
X108693818Y-58566261D01*
X108532199Y-58558922D01*
X108532197Y-58558922D01*
X108291123Y-58586815D01*
X108057610Y-58652892D01*
X107837666Y-58755454D01*
X107636948Y-58891862D01*
X107540954Y-58982639D01*
X107460618Y-59058609D01*
X107313224Y-59251392D01*
X107299326Y-59277314D01*
X107253649Y-59362500D01*
X106336651Y-59362500D01*
X106277658Y-59358478D01*
X106211480Y-59370027D01*
X106144809Y-59378095D01*
X106144807Y-59378096D01*
X106144806Y-59378096D01*
X106127256Y-59384727D01*
X106108775Y-59387953D01*
X106047270Y-59414952D01*
X105984438Y-59438694D01*
X105968977Y-59449320D01*
X105951798Y-59456861D01*
X105898517Y-59497745D01*
X105860409Y-59523937D01*
X105843154Y-59535796D01*
X105801641Y-59582389D01*
X105625030Y-59759000D01*
X105263998Y-59759000D01*
X105050895Y-59805358D01*
X105050894Y-59805359D01*
X105050892Y-59805359D01*
X104928056Y-59884300D01*
X104832437Y-59994651D01*
X104771780Y-60127471D01*
X104761390Y-60199735D01*
X104751000Y-60271997D01*
X104751000Y-61172002D01*
X104794204Y-61370606D01*
X104797359Y-61385108D01*
X104838644Y-61449349D01*
X104876301Y-61507945D01*
X104910727Y-61537775D01*
X104949111Y-61597501D01*
X104949111Y-61668498D01*
X104910728Y-61728224D01*
X104828215Y-61759000D01*
X104752971Y-61759000D01*
X101798727Y-58804758D01*
X101806435Y-58746210D01*
X101808200Y-58674000D01*
X101806498Y-58653293D01*
X101788352Y-58432576D01*
X101729337Y-58197627D01*
X101719217Y-58174353D01*
X101632743Y-57975475D01*
X101608907Y-57938629D01*
X101501163Y-57772083D01*
X101338131Y-57592913D01*
X101148022Y-57442775D01*
X100935951Y-57325705D01*
X100845557Y-57293695D01*
X100707600Y-57244842D01*
X100707598Y-57244842D01*
X100707596Y-57244841D01*
X100534832Y-57214067D01*
X100469111Y-57202360D01*
X100226886Y-57199401D01*
X100226882Y-57199401D01*
X100067249Y-57223829D01*
X99987430Y-57236043D01*
X99917025Y-57259055D01*
X99204415Y-56546446D01*
X99234816Y-56446380D01*
X99242501Y-56387999D01*
X101417065Y-56387999D01*
X101459441Y-56576041D01*
X101550578Y-56800483D01*
X101677152Y-57007034D01*
X101835759Y-57190135D01*
X102022139Y-57344871D01*
X102231290Y-57467088D01*
X102457594Y-57553505D01*
X102616000Y-57585733D01*
X102616001Y-56388000D01*
X101417065Y-56387999D01*
X99242501Y-56387999D01*
X99266435Y-56206207D01*
X99268200Y-56134000D01*
X99248352Y-55892576D01*
X99189337Y-55657627D01*
X99162005Y-55594768D01*
X99092743Y-55435475D01*
X99066239Y-55394505D01*
X98961163Y-55232083D01*
X98798131Y-55052913D01*
X98615122Y-54908382D01*
X98574059Y-54850465D01*
X98570827Y-54779542D01*
X98606452Y-54718131D01*
X98693214Y-54683500D01*
X101970551Y-54683500D01*
X102038672Y-54703502D01*
X102085165Y-54757158D01*
X102095269Y-54827432D01*
X102046204Y-54910260D01*
X101888585Y-55028605D01*
X101721221Y-55203741D01*
X101584715Y-55403851D01*
X101482719Y-55623584D01*
X101417983Y-55857012D01*
X101415526Y-55880000D01*
X102616001Y-55880001D01*
X102616001Y-55880000D01*
X103124000Y-55880001D01*
X103123999Y-57586730D01*
X103177335Y-57579898D01*
X103409366Y-57510286D01*
X103626896Y-57403719D01*
X103745807Y-57318900D01*
X103812881Y-57295627D01*
X103881889Y-57312310D01*
X103930923Y-57363654D01*
X103939350Y-57393214D01*
X103941544Y-57392687D01*
X104002946Y-57648445D01*
X104011371Y-57668784D01*
X104098110Y-57878191D01*
X104099808Y-57882291D01*
X104232056Y-58098098D01*
X104396437Y-58290563D01*
X104588902Y-58454944D01*
X104804709Y-58587192D01*
X104804713Y-58587194D01*
X104910664Y-58631080D01*
X105038555Y-58684054D01*
X105284670Y-58743141D01*
X105537000Y-58763000D01*
X105789330Y-58743141D01*
X106035445Y-58684054D01*
X106163336Y-58631080D01*
X106269287Y-58587194D01*
X106269291Y-58587192D01*
X106485098Y-58454944D01*
X106677563Y-58290563D01*
X106841944Y-58098098D01*
X106974192Y-57882291D01*
X106975891Y-57878191D01*
X107062629Y-57668784D01*
X107071054Y-57648445D01*
X107130141Y-57402330D01*
X107150000Y-57150000D01*
X107130141Y-56897670D01*
X107071054Y-56651555D01*
X106974192Y-56417709D01*
X106841944Y-56201902D01*
X106677563Y-56009437D01*
X106485098Y-55845056D01*
X106245500Y-55698229D01*
X106245500Y-55453787D01*
X106248198Y-55453200D01*
X106248200Y-55453200D01*
X106365283Y-55427730D01*
X106461305Y-55406842D01*
X106461306Y-55406841D01*
X106461308Y-55406841D01*
X106584144Y-55327900D01*
X106665864Y-55233590D01*
X106679763Y-55217549D01*
X106771456Y-55016770D01*
X106975139Y-55185871D01*
X107184290Y-55308088D01*
X107410594Y-55394505D01*
X107569000Y-55426733D01*
X107569000Y-54229000D01*
X108077000Y-54229000D01*
X108077000Y-55427730D01*
X108130335Y-55420898D01*
X108362366Y-55351286D01*
X108579900Y-55244716D01*
X108777114Y-55104045D01*
X108948706Y-54933051D01*
X109090066Y-54736327D01*
X109197395Y-54519165D01*
X109267816Y-54287378D01*
X109275502Y-54229000D01*
X108077000Y-54229000D01*
X107569000Y-54229000D01*
X107569000Y-53721000D01*
X109278193Y-53721000D01*
X109222336Y-53498627D01*
X109125742Y-53276473D01*
X108994163Y-53073083D01*
X108967062Y-53043300D01*
X108936010Y-52979455D01*
X108944404Y-52908956D01*
X108989580Y-52854188D01*
X109060255Y-52832500D01*
X115718686Y-52832500D01*
X115737656Y-53009802D01*
G37*
%TD.AperFunction*%
%TA.AperFunction,Conductor*%
G36*
X98916759Y-78333000D02*
G01*
X98938908Y-78380499D01*
X99070187Y-78567984D01*
X99232016Y-78729813D01*
X99232019Y-78729815D01*
X99232020Y-78729816D01*
X99306854Y-78782215D01*
X99419501Y-78861092D01*
X99494999Y-78896297D01*
X99626928Y-78957816D01*
X99848000Y-79017053D01*
X100076000Y-79037000D01*
X100304000Y-79017053D01*
X100525072Y-78957816D01*
X100657001Y-78896297D01*
X100732499Y-78861092D01*
X100800467Y-78813500D01*
X101515319Y-78813500D01*
X101610187Y-78948984D01*
X101772018Y-79110815D01*
X101810756Y-79137940D01*
X101907501Y-79205681D01*
X101907500Y-80563800D01*
X101650798Y-80563800D01*
X101437695Y-80610158D01*
X101437694Y-80610159D01*
X101437692Y-80610159D01*
X101314856Y-80689100D01*
X101219237Y-80799451D01*
X101158580Y-80932271D01*
X101158580Y-80932274D01*
X101143640Y-81036184D01*
X101137800Y-81076800D01*
X101137800Y-83007200D01*
X101176369Y-83184500D01*
X99155863Y-83184500D01*
X99087742Y-83164498D01*
X99041249Y-83110842D01*
X99031145Y-83040568D01*
X99053540Y-82984974D01*
X99184066Y-82803327D01*
X99291395Y-82586165D01*
X99361816Y-82354378D01*
X99369502Y-82296000D01*
X97663000Y-82296000D01*
X97663000Y-81788000D01*
X98171000Y-81788000D01*
X99372193Y-81788000D01*
X99316336Y-81565627D01*
X99219742Y-81343473D01*
X99088163Y-81140083D01*
X98925131Y-80960913D01*
X98735022Y-80810775D01*
X98522951Y-80693705D01*
X98294597Y-80612841D01*
X98171000Y-80590825D01*
X98171000Y-81788000D01*
X97663000Y-81788000D01*
X97663000Y-80590490D01*
X97574430Y-80604043D01*
X97344171Y-80679302D01*
X97129304Y-80791156D01*
X96881699Y-80977064D01*
X96729901Y-80740857D01*
X96716219Y-80729001D01*
X96693116Y-80708983D01*
X96619547Y-80645235D01*
X96455606Y-80570361D01*
X98845590Y-78180377D01*
X98916759Y-78333000D01*
G37*
%TD.AperFunction*%
%TA.AperFunction,Conductor*%
G36*
X111083300Y-73670135D02*
G01*
X111079277Y-73729140D01*
X111090829Y-73795335D01*
X111095097Y-73830598D01*
X111098896Y-73861993D01*
X111105526Y-73879539D01*
X111108752Y-73898023D01*
X111135755Y-73959538D01*
X111159494Y-74022361D01*
X111170118Y-74037819D01*
X111174350Y-74047459D01*
X111177660Y-74055001D01*
X111202221Y-74087009D01*
X111218547Y-74108285D01*
X111244737Y-74146391D01*
X111256596Y-74163645D01*
X111303188Y-74205157D01*
X112050230Y-74952200D01*
X112050234Y-74952203D01*
X112250557Y-75152526D01*
X112230047Y-75226481D01*
X112212983Y-75288010D01*
X112187241Y-75528887D01*
X112201186Y-75770727D01*
X112254442Y-76007042D01*
X112345440Y-76231141D01*
X112345580Y-76231487D01*
X112472151Y-76438033D01*
X112608189Y-76595079D01*
X112363857Y-76752099D01*
X112363856Y-76752100D01*
X112268237Y-76862451D01*
X112207580Y-76995271D01*
X112207580Y-76995274D01*
X112186800Y-77139797D01*
X112186800Y-79070202D01*
X112218240Y-79214729D01*
X112233159Y-79283308D01*
X112312100Y-79406144D01*
X112422451Y-79501763D01*
X112555271Y-79562420D01*
X112627535Y-79572810D01*
X112699797Y-79583200D01*
X114630202Y-79583200D01*
X114843305Y-79536842D01*
X114843306Y-79536841D01*
X114843308Y-79536841D01*
X114966144Y-79457900D01*
X115061763Y-79347549D01*
X115122420Y-79214729D01*
X115132810Y-79142465D01*
X115143200Y-79070203D01*
X115143200Y-77139798D01*
X115096842Y-76926695D01*
X115096841Y-76926694D01*
X115096841Y-76926692D01*
X115017900Y-76803856D01*
X114907549Y-76708237D01*
X114774729Y-76647580D01*
X114774727Y-76647580D01*
X114719385Y-76622306D01*
X114881304Y-76396970D01*
X114932065Y-76326329D01*
X114946507Y-76297108D01*
X115039395Y-76109165D01*
X115047041Y-76084000D01*
X115109816Y-75877380D01*
X115138427Y-75660060D01*
X115167148Y-75595135D01*
X115226413Y-75556043D01*
X115297405Y-75555198D01*
X115352444Y-75587413D01*
X115772072Y-76007042D01*
X116162000Y-76396970D01*
X116162000Y-77508002D01*
X116208358Y-77721105D01*
X116208359Y-77721108D01*
X116287300Y-77843944D01*
X116397651Y-77939563D01*
X116530471Y-78000220D01*
X116588269Y-78008530D01*
X116674997Y-78021000D01*
X117175842Y-78021000D01*
X117243963Y-78041002D01*
X117290456Y-78094658D01*
X117300560Y-78164932D01*
X117264937Y-78236095D01*
X114167533Y-81333500D01*
X113876681Y-81333500D01*
X113781813Y-81198016D01*
X113619984Y-81036187D01*
X113432499Y-80904908D01*
X113357001Y-80869703D01*
X113225072Y-80808184D01*
X113004000Y-80748947D01*
X112776000Y-80729000D01*
X112548000Y-80748947D01*
X112326928Y-80808184D01*
X112194999Y-80869703D01*
X112119501Y-80904908D01*
X111932016Y-81036187D01*
X111770187Y-81198016D01*
X111675319Y-81333500D01*
X111532290Y-81333500D01*
X111407163Y-81140083D01*
X111349577Y-81076797D01*
X111244131Y-80960913D01*
X111054022Y-80810775D01*
X110841951Y-80693705D01*
X110801278Y-80679302D01*
X110613600Y-80612842D01*
X110613598Y-80612842D01*
X110613596Y-80612841D01*
X110422941Y-80578880D01*
X110375111Y-80570360D01*
X110132886Y-80567401D01*
X110132882Y-80567401D01*
X109893430Y-80604043D01*
X109663171Y-80679302D01*
X109448303Y-80791156D01*
X109422173Y-80810775D01*
X109254584Y-80936605D01*
X109215921Y-80977064D01*
X109087223Y-81111739D01*
X108964875Y-81291092D01*
X108867165Y-81140085D01*
X108704131Y-80960913D01*
X108514022Y-80810775D01*
X108301951Y-80693705D01*
X108261278Y-80679302D01*
X108073600Y-80612842D01*
X108073598Y-80612842D01*
X108073596Y-80612841D01*
X107882941Y-80578880D01*
X107835111Y-80570360D01*
X107592886Y-80567401D01*
X107592882Y-80567401D01*
X107353430Y-80604043D01*
X107123171Y-80679302D01*
X106908303Y-80791156D01*
X106882173Y-80810775D01*
X106714584Y-80936605D01*
X106675921Y-80977064D01*
X106547223Y-81111739D01*
X106424875Y-81291092D01*
X106327165Y-81140085D01*
X106164131Y-80960913D01*
X105974022Y-80810775D01*
X105761951Y-80693705D01*
X105533597Y-80612841D01*
X105410000Y-80590825D01*
X105410000Y-82296000D01*
X104902000Y-82296000D01*
X104902000Y-80590490D01*
X104813430Y-80604043D01*
X104583171Y-80679302D01*
X104368304Y-80791156D01*
X104120699Y-80977064D01*
X103968901Y-80740857D01*
X103955219Y-80729001D01*
X103858549Y-80645237D01*
X103725729Y-80584580D01*
X103653464Y-80574190D01*
X103581203Y-80563800D01*
X103324500Y-80563800D01*
X103324500Y-79205681D01*
X103459984Y-79110813D01*
X103621813Y-78948984D01*
X103753092Y-78761499D01*
X103788297Y-78686001D01*
X103849816Y-78554072D01*
X103902086Y-78359000D01*
X108949915Y-78359000D01*
X109002186Y-78554076D01*
X109098908Y-78761499D01*
X109230187Y-78948984D01*
X109392016Y-79110813D01*
X109579501Y-79242092D01*
X109786924Y-79338814D01*
X109982000Y-79391085D01*
X109982000Y-78359000D01*
X110490000Y-78359000D01*
X110490000Y-79391085D01*
X110685076Y-79338814D01*
X110892499Y-79242092D01*
X111079984Y-79110813D01*
X111241813Y-78948984D01*
X111373092Y-78761499D01*
X111469814Y-78554076D01*
X111522085Y-78359000D01*
X110490000Y-78359000D01*
X109982000Y-78359000D01*
X108949915Y-78359000D01*
X103902086Y-78359000D01*
X103909053Y-78333000D01*
X103929000Y-78105000D01*
X103909053Y-77877000D01*
X103902087Y-77851000D01*
X108949915Y-77851000D01*
X109982000Y-77851000D01*
X110490000Y-77851000D01*
X111522085Y-77851000D01*
X111469814Y-77655924D01*
X111373092Y-77448501D01*
X111241813Y-77261016D01*
X111079984Y-77099187D01*
X110892499Y-76967908D01*
X110685076Y-76871186D01*
X110490000Y-76818915D01*
X110490000Y-77851000D01*
X109982000Y-77851000D01*
X109982000Y-76818915D01*
X109786924Y-76871186D01*
X109579501Y-76967908D01*
X109392016Y-77099187D01*
X109230187Y-77261016D01*
X109098908Y-77448501D01*
X109002186Y-77655924D01*
X108949915Y-77851000D01*
X103902087Y-77851000D01*
X103849816Y-77655928D01*
X103775239Y-77495996D01*
X103753092Y-77448501D01*
X103621813Y-77261016D01*
X103459984Y-77099187D01*
X103414731Y-77067500D01*
X103385146Y-77046785D01*
X103272499Y-76967908D01*
X103184116Y-76926695D01*
X103065072Y-76871184D01*
X102844000Y-76811947D01*
X102616000Y-76792000D01*
X102388000Y-76811947D01*
X102166928Y-76871184D01*
X102047884Y-76926695D01*
X101959501Y-76967908D01*
X101846854Y-77046785D01*
X101817270Y-77067500D01*
X101772016Y-77099187D01*
X101610187Y-77261016D01*
X101515319Y-77396500D01*
X101342392Y-77396500D01*
X101309816Y-77274928D01*
X101227867Y-77099187D01*
X101213092Y-77067501D01*
X101081813Y-76880016D01*
X100919984Y-76718187D01*
X100905774Y-76708237D01*
X100732500Y-76586909D01*
X100723909Y-76582903D01*
X100532379Y-76493589D01*
X101133468Y-75892500D01*
X103938638Y-75892500D01*
X103976358Y-75961827D01*
X104072672Y-76084000D01*
X104124281Y-76149466D01*
X104301701Y-76309497D01*
X104503549Y-76437346D01*
X104638332Y-76493589D01*
X104724055Y-76529360D01*
X104956907Y-76582903D01*
X105195453Y-76596449D01*
X105195454Y-76596449D01*
X105432868Y-76569610D01*
X105432871Y-76569609D01*
X105432872Y-76569609D01*
X105662374Y-76503149D01*
X105662375Y-76503149D01*
X105662377Y-76503148D01*
X105877395Y-76398973D01*
X106071795Y-76260053D01*
X106113100Y-76218385D01*
X106175263Y-76184088D01*
X106246100Y-76188843D01*
X106303121Y-76231141D01*
X106325704Y-76280307D01*
X106329359Y-76297108D01*
X106408300Y-76419944D01*
X106518651Y-76515563D01*
X106651471Y-76576220D01*
X106723736Y-76586610D01*
X106795997Y-76597000D01*
X108596002Y-76597000D01*
X108809105Y-76550642D01*
X108809106Y-76550641D01*
X108809108Y-76550641D01*
X108931944Y-76471700D01*
X108961117Y-76438033D01*
X109027563Y-76361349D01*
X109043557Y-76326327D01*
X109088220Y-76228529D01*
X109098610Y-76156265D01*
X109109000Y-76084003D01*
X109109000Y-74463144D01*
X109534325Y-74037819D01*
X109960109Y-73612036D01*
X110018116Y-73617111D01*
X110018117Y-73617111D01*
X110246117Y-73637058D01*
X110474117Y-73617111D01*
X110695189Y-73557874D01*
X110781281Y-73517729D01*
X111083300Y-73376897D01*
X111083300Y-73670135D01*
G37*
%TD.AperFunction*%
%TA.AperFunction,Conductor*%
G36*
X102505089Y-61515060D02*
G01*
X102539115Y-61577372D01*
X102534050Y-61648187D01*
X102491503Y-61705023D01*
X102406109Y-61729767D01*
X102282001Y-61720000D01*
X102282000Y-61720000D01*
X102157895Y-61729767D01*
X102025759Y-61740166D01*
X101775828Y-61800169D01*
X101538366Y-61898530D01*
X101538364Y-61898531D01*
X101319208Y-62032830D01*
X101319206Y-62032832D01*
X101319204Y-62032833D01*
X101123759Y-62199759D01*
X100960331Y-62391109D01*
X100956830Y-62395208D01*
X100915593Y-62462501D01*
X100822530Y-62614366D01*
X100724169Y-62851828D01*
X100664166Y-63101759D01*
X100644000Y-63358000D01*
X100664166Y-63614241D01*
X100724169Y-63864172D01*
X100822222Y-64100891D01*
X100822531Y-64101636D01*
X100956830Y-64320792D01*
X100956832Y-64320794D01*
X100956833Y-64320796D01*
X101067482Y-64450349D01*
X101123759Y-64516241D01*
X101319208Y-64683170D01*
X101538364Y-64817469D01*
X101707481Y-64887520D01*
X101781413Y-64918144D01*
X101836693Y-64962693D01*
X101859114Y-65030056D01*
X101841556Y-65098847D01*
X101805466Y-65137765D01*
X101772020Y-65161184D01*
X101772018Y-65161186D01*
X101772015Y-65161188D01*
X101610187Y-65323016D01*
X101478908Y-65510501D01*
X101457366Y-65556699D01*
X101382184Y-65717928D01*
X101322947Y-65939000D01*
X101303000Y-66167000D01*
X101322947Y-66395000D01*
X101382184Y-66616072D01*
X101428932Y-66716324D01*
X101478908Y-66823499D01*
X101610187Y-67010984D01*
X101772016Y-67172813D01*
X101959501Y-67304092D01*
X102027921Y-67335996D01*
X102166928Y-67400816D01*
X102388000Y-67460053D01*
X102616000Y-67480000D01*
X102844000Y-67460053D01*
X103065072Y-67400816D01*
X103204079Y-67335996D01*
X103272499Y-67304092D01*
X103459984Y-67172813D01*
X103621813Y-67010984D01*
X103753092Y-66823499D01*
X103849816Y-66616071D01*
X103896639Y-66441330D01*
X106652970Y-63685000D01*
X107014002Y-63685000D01*
X107227105Y-63638642D01*
X107227106Y-63638641D01*
X107227108Y-63638641D01*
X107349944Y-63559700D01*
X107359814Y-63548310D01*
X107445563Y-63449349D01*
X107480430Y-63373000D01*
X107506220Y-63316529D01*
X107527000Y-63172000D01*
X107527000Y-62272000D01*
X107517258Y-62227213D01*
X107480642Y-62058895D01*
X107480641Y-62058894D01*
X107480641Y-62058892D01*
X107401700Y-61936056D01*
X107396213Y-61931301D01*
X107291349Y-61840437D01*
X107158529Y-61779780D01*
X107086264Y-61769390D01*
X107014003Y-61759000D01*
X106503151Y-61759000D01*
X106435030Y-61738998D01*
X106388537Y-61685342D01*
X106378433Y-61615068D01*
X106407926Y-61550488D01*
X106438625Y-61515060D01*
X106495563Y-61449349D01*
X106556220Y-61316529D01*
X106568657Y-61230025D01*
X106577000Y-61172003D01*
X106577000Y-60810970D01*
X106608470Y-60779500D01*
X107253389Y-60779500D01*
X107296337Y-60863791D01*
X107296339Y-60863794D01*
X107439666Y-61059626D01*
X107612461Y-61230025D01*
X107810279Y-61370607D01*
X107876501Y-61403196D01*
X107876500Y-66716316D01*
X107876501Y-66716324D01*
X107876500Y-68050348D01*
X107876415Y-68051591D01*
X107872478Y-68109341D01*
X107884027Y-68175519D01*
X107892095Y-68242190D01*
X107892096Y-68242192D01*
X107892096Y-68242193D01*
X107898727Y-68259743D01*
X107901953Y-68278224D01*
X107928952Y-68339729D01*
X107952694Y-68402561D01*
X107963320Y-68418022D01*
X107970861Y-68435201D01*
X108011748Y-68488486D01*
X108049794Y-68543843D01*
X108049796Y-68543844D01*
X108049796Y-68543845D01*
X108096391Y-68585360D01*
X108938890Y-69427860D01*
X108942947Y-69443000D01*
X109002184Y-69664070D01*
X109002184Y-69664071D01*
X109098908Y-69871499D01*
X109230187Y-70058984D01*
X109392016Y-70220813D01*
X109579501Y-70352092D01*
X109654999Y-70387297D01*
X109786928Y-70448816D01*
X110008000Y-70508053D01*
X110236000Y-70528000D01*
X110464000Y-70508053D01*
X110685072Y-70448816D01*
X110845240Y-70374129D01*
X110902492Y-70347432D01*
X110904104Y-70350890D01*
X110952298Y-70334635D01*
X111021159Y-70351918D01*
X111069745Y-70403686D01*
X111083299Y-70460536D01*
X111083300Y-70895338D01*
X111083300Y-71271221D01*
X110902620Y-71186969D01*
X110902617Y-71186967D01*
X110695189Y-71090242D01*
X110474117Y-71031005D01*
X110246117Y-71011058D01*
X110018117Y-71031005D01*
X109797045Y-71090242D01*
X109665116Y-71151761D01*
X109589618Y-71186966D01*
X109402133Y-71318245D01*
X109240304Y-71480074D01*
X109240302Y-71480077D01*
X109240301Y-71480078D01*
X109187902Y-71554912D01*
X109109025Y-71667559D01*
X109098053Y-71691089D01*
X109012301Y-71874986D01*
X108953064Y-72096058D01*
X108933117Y-72324058D01*
X108953064Y-72552058D01*
X108958139Y-72610066D01*
X107797206Y-73771000D01*
X106795998Y-73771000D01*
X106582895Y-73817358D01*
X106582894Y-73817359D01*
X106582892Y-73817359D01*
X106460056Y-73896300D01*
X106460055Y-73896301D01*
X106364436Y-74006652D01*
X106239553Y-74280105D01*
X106092282Y-74125726D01*
X106092280Y-74125724D01*
X105953355Y-74022361D01*
X105900589Y-73983102D01*
X105687605Y-73874815D01*
X105687602Y-73874814D01*
X105687600Y-73874813D01*
X105459426Y-73803963D01*
X105459423Y-73803963D01*
X105459421Y-73803962D01*
X105222561Y-73772569D01*
X105222558Y-73772569D01*
X105103180Y-73777050D01*
X104983799Y-73781532D01*
X104749960Y-73830597D01*
X104749958Y-73830598D01*
X104749957Y-73830598D01*
X104527734Y-73918357D01*
X104527730Y-73918359D01*
X104323466Y-74042310D01*
X104143005Y-74198906D01*
X104072566Y-74284813D01*
X103991510Y-74383667D01*
X103973054Y-74416091D01*
X103939236Y-74475500D01*
X101414487Y-74475500D01*
X101346366Y-74455498D01*
X101299873Y-74401842D01*
X101289769Y-74331568D01*
X101325392Y-74260405D01*
X101462813Y-74122984D01*
X101594092Y-73935499D01*
X101649181Y-73817358D01*
X101690816Y-73728072D01*
X101721908Y-73612036D01*
X101795086Y-73338942D01*
X101969615Y-73461148D01*
X101969617Y-73461149D01*
X102177045Y-73557874D01*
X102398117Y-73617111D01*
X102626117Y-73637058D01*
X102854117Y-73617111D01*
X103075189Y-73557874D01*
X103207118Y-73496355D01*
X103282616Y-73461150D01*
X103402941Y-73376897D01*
X103470097Y-73329874D01*
X103470098Y-73329873D01*
X103470101Y-73329871D01*
X103631930Y-73168042D01*
X103763209Y-72980557D01*
X103798414Y-72905059D01*
X103859933Y-72773130D01*
X103919170Y-72552058D01*
X103939117Y-72324058D01*
X103919170Y-72096058D01*
X103859933Y-71874986D01*
X103774181Y-71691089D01*
X103763209Y-71667559D01*
X103684332Y-71554912D01*
X103631933Y-71480078D01*
X103631932Y-71480077D01*
X103631930Y-71480074D01*
X103470101Y-71318245D01*
X103463299Y-71313482D01*
X103282617Y-71186967D01*
X103092565Y-71098345D01*
X103132093Y-71047934D01*
X103146234Y-71035598D01*
X103184864Y-70980633D01*
X103226302Y-70927785D01*
X103234021Y-70910689D01*
X103240014Y-70902162D01*
X103244810Y-70895339D01*
X103251189Y-70878977D01*
X103269211Y-70832752D01*
X103283519Y-70801064D01*
X103296850Y-70771540D01*
X103300269Y-70753093D01*
X103307084Y-70735613D01*
X103315853Y-70669004D01*
X103328091Y-70602974D01*
X103324500Y-70540692D01*
X103324500Y-70315681D01*
X103459984Y-70220813D01*
X103621813Y-70058984D01*
X103753092Y-69871499D01*
X103788297Y-69796001D01*
X103849816Y-69664072D01*
X103909053Y-69443000D01*
X103929000Y-69215000D01*
X103909053Y-68987000D01*
X103849816Y-68765928D01*
X103758368Y-68569816D01*
X103753092Y-68558501D01*
X103621813Y-68371016D01*
X103459984Y-68209187D01*
X103272499Y-68077908D01*
X103197001Y-68042703D01*
X103065072Y-67981184D01*
X102844000Y-67921947D01*
X102616000Y-67902000D01*
X102388000Y-67921947D01*
X102166928Y-67981184D01*
X102034999Y-68042703D01*
X101959501Y-68077908D01*
X101772016Y-68209187D01*
X101610187Y-68371016D01*
X101478908Y-68558501D01*
X101473632Y-68569816D01*
X101382184Y-68765928D01*
X101373767Y-68797341D01*
X101279859Y-69147802D01*
X101064549Y-68961237D01*
X100931726Y-68900580D01*
X100787203Y-68879800D01*
X100076000Y-68879800D01*
X100076000Y-70104000D01*
X101300200Y-70104000D01*
X101300200Y-70015898D01*
X101320202Y-69947777D01*
X101373858Y-69901284D01*
X101444132Y-69891180D01*
X101529413Y-69943627D01*
X101610187Y-70058984D01*
X101861703Y-70310500D01*
X101515295Y-70656908D01*
X101452983Y-70690934D01*
X101382168Y-70685869D01*
X101325332Y-70643322D01*
X101314907Y-70612000D01*
X100076000Y-70612000D01*
X100076000Y-72013442D01*
X100007930Y-72045183D01*
X100007928Y-72045184D01*
X99800500Y-72141909D01*
X99800499Y-72141910D01*
X99613016Y-72273187D01*
X99451187Y-72435016D01*
X99349024Y-72580919D01*
X99314777Y-72595953D01*
X99314775Y-72595953D01*
X99253270Y-72622952D01*
X99190438Y-72646694D01*
X99174977Y-72657320D01*
X99157798Y-72664861D01*
X99104517Y-72705745D01*
X99066409Y-72731937D01*
X99049154Y-72743796D01*
X99007642Y-72790388D01*
X95362008Y-76436022D01*
X95304001Y-76430947D01*
X95304000Y-76430947D01*
X95076000Y-76411000D01*
X94848000Y-76430947D01*
X94626928Y-76490184D01*
X94542917Y-76529359D01*
X94419501Y-76586908D01*
X94232016Y-76718187D01*
X94070187Y-76880016D01*
X93938908Y-77067501D01*
X93924133Y-77099187D01*
X93842184Y-77274928D01*
X93782947Y-77496000D01*
X93763000Y-77724000D01*
X93782947Y-77952000D01*
X93842184Y-78173072D01*
X93903703Y-78305001D01*
X93938908Y-78380499D01*
X94070187Y-78567984D01*
X94232016Y-78729813D01*
X94232019Y-78729815D01*
X94232020Y-78729816D01*
X94306854Y-78782215D01*
X94419501Y-78861092D01*
X94494999Y-78896297D01*
X94626928Y-78957816D01*
X94848000Y-79017053D01*
X95076000Y-79037000D01*
X95304000Y-79017053D01*
X95525072Y-78957816D01*
X95657001Y-78896297D01*
X95732499Y-78861092D01*
X95845146Y-78782215D01*
X95919980Y-78729816D01*
X95919981Y-78729815D01*
X95919984Y-78729813D01*
X96081813Y-78567984D01*
X96213092Y-78380499D01*
X96248297Y-78305001D01*
X96309816Y-78173072D01*
X96369053Y-77952000D01*
X96389000Y-77724000D01*
X96369053Y-77496000D01*
X96369052Y-77495996D01*
X96363978Y-77437992D01*
X99556635Y-74245335D01*
X99800501Y-74416092D01*
X99885009Y-74455498D01*
X100007928Y-74512816D01*
X100100161Y-74537530D01*
X100403277Y-74618752D01*
X100384400Y-74637629D01*
X100368152Y-74648796D01*
X100326640Y-74695388D01*
X94891334Y-80130695D01*
X94846768Y-80169572D01*
X94808133Y-80224542D01*
X94699745Y-80362775D01*
X92345499Y-78008530D01*
X92345499Y-74501447D01*
X92387928Y-74512816D01*
X92609000Y-74572053D01*
X92837000Y-74592000D01*
X93065000Y-74572053D01*
X93286072Y-74512816D01*
X93418001Y-74451297D01*
X93493499Y-74416092D01*
X93614211Y-74331568D01*
X93680980Y-74284816D01*
X93680981Y-74284815D01*
X93680984Y-74284813D01*
X93842813Y-74122984D01*
X93974092Y-73935499D01*
X94029181Y-73817358D01*
X94070816Y-73728072D01*
X94130053Y-73507000D01*
X94150000Y-73279000D01*
X94130053Y-73051000D01*
X94070816Y-72829928D01*
X93990328Y-72657320D01*
X93974092Y-72622501D01*
X93924767Y-72552058D01*
X93842816Y-72435020D01*
X93754883Y-72347087D01*
X94325331Y-71776639D01*
X94566974Y-71825803D01*
X94809052Y-71834678D01*
X94809056Y-71834678D01*
X95049335Y-71803898D01*
X95281361Y-71734287D01*
X95281364Y-71734286D01*
X95281366Y-71734285D01*
X95498900Y-71627716D01*
X95498902Y-71627715D01*
X95644515Y-71523850D01*
X95696114Y-71487045D01*
X95867706Y-71316051D01*
X96001505Y-71129851D01*
X96089150Y-71231031D01*
X96089151Y-71231033D01*
X96247758Y-71414134D01*
X96434139Y-71568871D01*
X96643291Y-71691089D01*
X96865882Y-71776088D01*
X96869598Y-71777507D01*
X97106975Y-71825803D01*
X97349052Y-71834678D01*
X97349056Y-71834678D01*
X97589335Y-71803898D01*
X97821361Y-71734287D01*
X97821364Y-71734286D01*
X97821366Y-71734285D01*
X98038900Y-71627717D01*
X98165468Y-71537436D01*
X98236116Y-71487043D01*
X98236118Y-71487041D01*
X98320032Y-71427185D01*
X98469101Y-71659145D01*
X98579451Y-71754763D01*
X98712274Y-71815420D01*
X98856797Y-71836200D01*
X99568000Y-71836200D01*
X99568000Y-68879800D01*
X98856798Y-68879800D01*
X98643695Y-68926158D01*
X98520855Y-69005101D01*
X98425237Y-69115451D01*
X98335232Y-69312533D01*
X98290132Y-69276915D01*
X98290130Y-69276913D01*
X98100023Y-69126776D01*
X98100024Y-69126776D01*
X98100022Y-69126775D01*
X97887951Y-69009705D01*
X97847278Y-68995302D01*
X97659600Y-68928842D01*
X97659598Y-68928842D01*
X97659596Y-68928841D01*
X97486832Y-68898067D01*
X97421111Y-68886360D01*
X97178886Y-68883401D01*
X97178882Y-68883401D01*
X96939430Y-68920043D01*
X96709171Y-68995302D01*
X96494303Y-69107156D01*
X96494302Y-69107157D01*
X96300584Y-69252605D01*
X96243316Y-69312533D01*
X96133223Y-69427739D01*
X96010875Y-69607092D01*
X95913165Y-69456085D01*
X95750131Y-69276913D01*
X95560022Y-69126775D01*
X95347951Y-69009705D01*
X95307278Y-68995302D01*
X95119600Y-68928842D01*
X95119598Y-68928842D01*
X95119596Y-68928841D01*
X94946832Y-68898067D01*
X94881111Y-68886360D01*
X94638886Y-68883401D01*
X94638882Y-68883401D01*
X94399430Y-68920043D01*
X94169171Y-68995302D01*
X93954303Y-69107156D01*
X93954302Y-69107157D01*
X93760584Y-69252605D01*
X93703316Y-69312533D01*
X93593221Y-69427741D01*
X93456715Y-69627851D01*
X93456713Y-69627854D01*
X93456713Y-69627855D01*
X93354720Y-69847580D01*
X93354719Y-69847584D01*
X93327296Y-69946469D01*
X93289983Y-70081013D01*
X93267148Y-70294686D01*
X93264241Y-70321887D01*
X93278186Y-70563727D01*
X93299185Y-70656908D01*
X93325019Y-70771540D01*
X93325289Y-70772740D01*
X92560595Y-71537436D01*
X92498282Y-71571461D01*
X92427467Y-71566397D01*
X92370631Y-71523850D01*
X92345499Y-71448341D01*
X92345499Y-69946470D01*
X93830664Y-68461306D01*
X93875233Y-68422427D01*
X93913869Y-68367453D01*
X93955302Y-68314612D01*
X93963021Y-68297516D01*
X93966970Y-68291897D01*
X93973810Y-68282166D01*
X93989395Y-68242190D01*
X93998211Y-68219579D01*
X94025850Y-68158366D01*
X94029269Y-68139921D01*
X94036084Y-68122440D01*
X94044853Y-68055831D01*
X94057091Y-67989801D01*
X94053500Y-67927519D01*
X94053500Y-64845471D01*
X94198107Y-64700864D01*
X94654402Y-64244571D01*
X94745358Y-64386105D01*
X94745359Y-64386108D01*
X94824300Y-64508944D01*
X94934651Y-64604563D01*
X95067471Y-64665220D01*
X95139735Y-64675610D01*
X95211997Y-64686000D01*
X96812002Y-64686000D01*
X97025105Y-64639642D01*
X97025106Y-64639641D01*
X97025108Y-64639641D01*
X97147944Y-64560700D01*
X97196361Y-64504824D01*
X97235112Y-64460102D01*
X97784109Y-64460102D01*
X97855501Y-64510092D01*
X98062930Y-64606816D01*
X98283996Y-64666052D01*
X98512000Y-64685999D01*
X98740004Y-64666052D01*
X98961070Y-64606816D01*
X99168499Y-64510092D01*
X99239891Y-64460102D01*
X98512000Y-63732210D01*
X97784109Y-64460102D01*
X97235112Y-64460102D01*
X97243563Y-64450349D01*
X97255900Y-64423335D01*
X97304220Y-64317529D01*
X97320334Y-64205455D01*
X98152789Y-63373000D01*
X98871210Y-63373000D01*
X99599102Y-64100891D01*
X99649092Y-64029499D01*
X99745816Y-63822070D01*
X99805052Y-63601004D01*
X99824999Y-63373000D01*
X99805052Y-63144996D01*
X99745816Y-62923930D01*
X99649092Y-62716501D01*
X99599102Y-62645109D01*
X98871210Y-63373000D01*
X98152789Y-63373000D01*
X99239892Y-62285898D01*
X99168499Y-62235908D01*
X98961070Y-62139184D01*
X98740004Y-62079948D01*
X98512000Y-62060001D01*
X98284001Y-62079947D01*
X98249208Y-62089270D01*
X98178231Y-62087580D01*
X98119435Y-62047786D01*
X98091487Y-61982522D01*
X98103260Y-61912508D01*
X98127501Y-61878468D01*
X98603375Y-61402594D01*
X99913331Y-60092639D01*
X100154974Y-60141803D01*
X100397052Y-60150678D01*
X100397056Y-60150678D01*
X100637335Y-60119898D01*
X100869361Y-60050287D01*
X100870899Y-60049533D01*
X100984106Y-59994076D01*
X102505089Y-61515060D01*
G37*
%TD.AperFunction*%
%TA.AperFunction,Conductor*%
G36*
X117528291Y-56833784D02*
G01*
X117585269Y-56895085D01*
X117597247Y-56910060D01*
X117610312Y-56922028D01*
X117620174Y-56932639D01*
X117626128Y-56937450D01*
X117634771Y-56944435D01*
X117856617Y-57147671D01*
X117966648Y-57248471D01*
X117979788Y-57262435D01*
X117979791Y-57262438D01*
X117993772Y-57273319D01*
X118002923Y-57281703D01*
X118004458Y-57283109D01*
X118019952Y-57293695D01*
X118298244Y-57510286D01*
X118375154Y-57570144D01*
X118389362Y-57583001D01*
X118393522Y-57585733D01*
X118404164Y-57592722D01*
X118415605Y-57601626D01*
X118431909Y-57610942D01*
X118808123Y-57858003D01*
X118823323Y-57869685D01*
X118838864Y-57878191D01*
X118850976Y-57886145D01*
X118867960Y-57894116D01*
X119262798Y-58110222D01*
X119278880Y-58120643D01*
X119295053Y-58127875D01*
X119307760Y-58134830D01*
X119307762Y-58134831D01*
X119325333Y-58141416D01*
X119736221Y-58325156D01*
X119753092Y-58334256D01*
X119760195Y-58336770D01*
X119769783Y-58340165D01*
X119783019Y-58346083D01*
X119801073Y-58351241D01*
X119909068Y-58389469D01*
X120225365Y-58501433D01*
X120242910Y-58509150D01*
X120260028Y-58513703D01*
X120273691Y-58518539D01*
X120273694Y-58518540D01*
X120273695Y-58518540D01*
X120292092Y-58522231D01*
X120430056Y-58558922D01*
X120727069Y-58637913D01*
X120745179Y-58644199D01*
X120762598Y-58647362D01*
X120776610Y-58651088D01*
X120795258Y-58653292D01*
X121238096Y-58733715D01*
X121256657Y-58738530D01*
X121256661Y-58738531D01*
X121274288Y-58740288D01*
X121288538Y-58742876D01*
X121307287Y-58743578D01*
X121755189Y-58788229D01*
X121774055Y-58791537D01*
X121791759Y-58791875D01*
X121792501Y-58791949D01*
X121792501Y-61889165D01*
X121772499Y-61957286D01*
X121718843Y-62003779D01*
X121648569Y-62013883D01*
X121600668Y-61996599D01*
X121494110Y-61931300D01*
X121440635Y-61898530D01*
X121203172Y-61800169D01*
X120953241Y-61740166D01*
X120697000Y-61720000D01*
X120440759Y-61740166D01*
X120190828Y-61800169D01*
X119953366Y-61898530D01*
X119953364Y-61898531D01*
X119734208Y-62032830D01*
X119734206Y-62032832D01*
X119734204Y-62032833D01*
X119538759Y-62199759D01*
X119375331Y-62391109D01*
X119371830Y-62395208D01*
X119330593Y-62462501D01*
X119237530Y-62614365D01*
X119179440Y-62754608D01*
X119134892Y-62809889D01*
X119067528Y-62832310D01*
X118998737Y-62814752D01*
X118941325Y-62739002D01*
X118922816Y-62669930D01*
X118826092Y-62462501D01*
X118776102Y-62391109D01*
X118048210Y-63119000D01*
X118776102Y-63846891D01*
X118826092Y-63775499D01*
X118866226Y-63689430D01*
X118913143Y-63636144D01*
X118981420Y-63616683D01*
X119049380Y-63637225D01*
X119102940Y-63713265D01*
X119139169Y-63864172D01*
X119237222Y-64100891D01*
X119237531Y-64101636D01*
X119371830Y-64320792D01*
X119371832Y-64320794D01*
X119371833Y-64320796D01*
X119482482Y-64450349D01*
X119538759Y-64516241D01*
X119734208Y-64683170D01*
X119953364Y-64817469D01*
X119953366Y-64817470D01*
X120190828Y-64915831D01*
X120440759Y-64975834D01*
X120697000Y-64996000D01*
X120953241Y-64975834D01*
X121203172Y-64915831D01*
X121440635Y-64817470D01*
X121536515Y-64758714D01*
X121600667Y-64719402D01*
X121669200Y-64700864D01*
X121736876Y-64722320D01*
X121782209Y-64776959D01*
X121792501Y-64826835D01*
X121792501Y-67238979D01*
X121772499Y-67307100D01*
X121718843Y-67353593D01*
X121648569Y-67363697D01*
X121583989Y-67334203D01*
X121544795Y-67271591D01*
X121518326Y-67172813D01*
X121502816Y-67114928D01*
X121441297Y-66982999D01*
X121406092Y-66907501D01*
X121274813Y-66720016D01*
X121112984Y-66558187D01*
X120925499Y-66426908D01*
X120850001Y-66391703D01*
X120718072Y-66330184D01*
X120497000Y-66270947D01*
X120269000Y-66251000D01*
X120041000Y-66270947D01*
X119819928Y-66330184D01*
X119612500Y-66426909D01*
X119612496Y-66426912D01*
X119535013Y-66463043D01*
X117709921Y-64637951D01*
X117675895Y-64575639D01*
X117680960Y-64504824D01*
X117723507Y-64447988D01*
X117788035Y-64423335D01*
X117917004Y-64412052D01*
X118138070Y-64352816D01*
X118345499Y-64256092D01*
X118416892Y-64206102D01*
X116494274Y-62283485D01*
X116455642Y-62105894D01*
X116438696Y-62079524D01*
X116408089Y-62031898D01*
X116961109Y-62031898D01*
X117689000Y-62759790D01*
X118416891Y-62031898D01*
X118345499Y-61981908D01*
X118138070Y-61885184D01*
X117917004Y-61825948D01*
X117689000Y-61806001D01*
X117460996Y-61825948D01*
X117239930Y-61885184D01*
X117032501Y-61981908D01*
X116961109Y-62031898D01*
X116408089Y-62031898D01*
X116405500Y-62027870D01*
X116405500Y-58763000D01*
X116797002Y-58763000D01*
X117010105Y-58716642D01*
X117010106Y-58716641D01*
X117010108Y-58716641D01*
X117132944Y-58637700D01*
X117228563Y-58527349D01*
X117289220Y-58394529D01*
X117310000Y-58250000D01*
X117310000Y-56919565D01*
X117330002Y-56851444D01*
X117383658Y-56804951D01*
X117453932Y-56794847D01*
X117528291Y-56833784D01*
G37*
%TD.AperFunction*%
%TD*%
M02*
